<svg width="25" height="22" viewBox="0 0 25 22" fill="none" xmlns="http://www.w3.org/2000/svg">
<path d="M24.0952 1.97255H14.5728V0H24.0952V1.97255ZM14.5728 5.97804H24.0952V4.00549H14.5728V5.97804ZM14.5728 9.98353H24.0952V8.01098H14.5728V9.98353ZM0 13.989H24.0952V12.0165H0V13.989ZM0 17.9945H24.0952V16.022H0V17.9945ZM14.5728 22H24.0952V20.0274H14.5728V22ZM9.52244 0H0V1.97255H9.52244V0ZM9.52244 4.00549H0V5.97804H9.52244V4.00549ZM9.52244 8.01098H0V9.98353H9.52244V8.01098ZM0 22H9.52244V20.0274H0V22Z" fill="white"/>
</svg>
