<svg width="22" height="22" viewBox="0 0 22 22" fill="none" xmlns="http://www.w3.org/2000/svg">
<g clip-path="url(#clip0)">
<path d="M22 3.66667C21.9665 2.70485 21.5695 1.79154 20.889 1.11102C20.2085 0.430506 19.2951 0.0334579 18.3333 0H3.66667C2.70485 0.0334579 1.79154 0.430506 1.11102 1.11102C0.430506 1.79154 0.0334579 2.70485 0 3.66667L0 18.3333C0.0327431 19.2954 0.429562 20.2091 1.11023 20.8898C1.79089 21.5704 2.70462 21.9673 3.66667 22H11V13.6889H8.31111V10.0222H11V8.59528C11 6.12944 12.8333 3.91111 15.125 3.91111H18.0889V7.57778H15.125C14.8011 7.57778 14.4222 7.97194 14.4222 8.56167V10.0222H18.0889V13.6889H14.4222V22H18.3333C19.2954 21.9673 20.2091 21.5704 20.8898 20.8898C21.5704 20.2091 21.9673 19.2954 22 18.3333V3.66667Z" fill="white"/>
</g>
<defs>
<clipPath id="clip0">
<rect width="22" height="22" fill="white"/>
</clipPath>
</defs>
</svg>
