<svg width="22" height="22" viewBox="0 0 22 22" fill="none" xmlns="http://www.w3.org/2000/svg">
<path d="M7.33354 10.9973C7.33402 10.272 7.54955 9.56321 7.95289 8.96047C8.35623 8.35772 8.92924 7.88812 9.59948 7.61106C10.2697 7.33399 11.0071 7.2619 11.7183 7.40391C12.4295 7.54591 13.0826 7.89563 13.595 8.40884C14.1075 8.92204 14.4562 9.57569 14.5972 10.2871C14.7381 10.9985 14.6649 11.7358 14.3868 12.4056C14.1088 13.0754 13.6383 13.6477 13.035 14.0501C12.4316 14.4526 11.7225 14.6671 10.9973 14.6665C10.0249 14.6657 9.09264 14.2787 8.40557 13.5906C7.71851 12.9025 7.33289 11.9696 7.33354 10.9973ZM5.3516 10.9973C5.3516 12.1148 5.683 13.2073 6.30388 14.1365C6.92477 15.0658 7.80726 15.79 8.83976 16.2177C9.87226 16.6453 11.0084 16.7572 12.1045 16.5392C13.2006 16.3212 14.2074 15.783 14.9977 14.9928C15.7879 14.2026 16.3261 13.1957 16.5441 12.0996C16.7621 11.0035 16.6502 9.8674 16.2225 8.8349C15.7949 7.8024 15.0706 6.91991 14.1414 6.29902C13.2122 5.67813 12.1197 5.34674 11.0021 5.34674C9.50351 5.34674 8.06628 5.94206 7.0066 7.00174C5.94692 8.06142 5.3516 9.49865 5.3516 10.9973ZM15.5541 5.12801C15.5541 5.38913 15.6316 5.6444 15.7767 5.86152C15.9217 6.07863 16.1279 6.24786 16.3692 6.34779C16.6104 6.44771 16.8759 6.47386 17.132 6.42292C17.3881 6.37197 17.6234 6.24623 17.808 6.06158C17.9926 5.87694 18.1184 5.64169 18.1693 5.38558C18.2203 5.12947 18.1941 4.86401 18.0942 4.62276C17.9943 4.38151 17.8251 4.17531 17.6079 4.03023C17.3908 3.88516 17.1356 3.80773 16.8744 3.80773C16.5243 3.80789 16.1886 3.94704 15.941 4.19461C15.6935 4.44217 15.5543 4.7779 15.5541 5.12801ZM6.55765 19.9531C5.48527 19.9038 4.90259 19.7252 4.51556 19.5745C4.03758 19.3983 3.60529 19.1169 3.25057 18.7512C2.88508 18.3966 2.60375 17.9646 2.4273 17.4869C2.27662 17.0992 2.09799 16.5147 2.04877 15.4442C1.99591 14.2843 1.98437 13.9361 1.98437 10.9991C1.98437 8.06203 1.99591 7.71449 2.04877 6.55401C2.09799 5.48162 2.27662 4.89956 2.4273 4.51192C2.60293 4.03438 2.88343 3.60232 3.24814 3.24754C3.60292 2.88209 4.03521 2.60095 4.51313 2.42487C4.90016 2.27419 5.48527 2.09495 6.55522 2.04573C7.71631 1.99287 8.06324 1.98194 10.9973 1.98194C13.9313 1.98194 14.2825 1.99287 15.443 2.04573C16.5147 2.09495 17.0974 2.27419 17.485 2.42487C17.9628 2.60123 18.3951 2.88233 18.75 3.24754C19.1155 3.60231 19.3966 4.0346 19.5727 4.51252C19.7234 4.90016 19.9026 5.48466 19.9518 6.55461C20.0047 7.7151 20.0156 8.06264 20.0156 10.9997C20.0156 13.9368 20.0047 14.2849 19.9518 15.4448C19.9026 16.5172 19.7234 17.0998 19.5727 17.4875C19.3896 17.9618 19.1092 18.3926 18.7497 18.7521C18.3901 19.1116 17.9594 19.392 17.485 19.5751C17.0974 19.7258 16.5129 19.9044 15.443 19.9537C14.2831 20.0065 13.9349 20.0144 10.9973 20.0144C8.0596 20.0144 7.71267 20.0035 6.55279 19.9537L6.55765 19.9531ZM6.46469 0.0662266C5.29388 0.121517 4.49612 0.303792 3.79497 0.577205C3.06103 0.853546 2.39611 1.28646 1.84645 1.84584C1.28667 2.39518 0.853698 3.06019 0.577812 3.79436C0.303792 4.49612 0.121517 5.29388 0.0668342 6.46469C0.0121517 7.63551 0 8.01221 0 10.9973C0 13.9823 0.0127593 14.359 0.0668342 15.5329C0.120909 16.7067 0.303792 17.5057 0.577812 18.205C0.853698 18.9392 1.28667 19.6042 1.84645 20.1536C2.39611 20.7129 3.06103 21.1458 3.79497 21.4222C4.49612 21.6944 5.29388 21.8803 6.46469 21.9338C7.63551 21.9872 8.01281 22.0006 10.9997 22.0006C13.9866 22.0006 14.3621 21.9878 15.5353 21.9338C16.7086 21.8797 17.5057 21.695 18.2056 21.4228C18.9364 21.1403 19.6001 20.7082 20.1542 20.1542C20.7082 19.6001 21.1403 18.9364 21.4228 18.2056C21.6944 17.5063 21.8809 16.7067 21.9338 15.5359C21.9866 14.3651 22 13.9878 22 11.0003C22 8.01281 21.9872 7.63854 21.9338 6.4653C21.8803 5.29205 21.6944 4.49612 21.4228 3.79436C21.1465 3.06042 20.7135 2.3955 20.1542 1.84584C19.6044 1.28658 18.9395 0.853686 18.2056 0.577205C17.5057 0.303792 16.7086 0.121517 15.5353 0.0662266C14.3621 0.0109365 13.9878 0 10.9973 0C8.00674 0 7.63854 0.0127593 6.46469 0.0662266Z" fill="white"/>
</svg>
