<svg width="35" height="46" viewBox="0 0 35 46" fill="none" xmlns="http://www.w3.org/2000/svg">
<path d="M34.2308 17.3488C34.2308 32.9655 17.5 45.4827 17.5 45.4827C17.5 45.4827 0.769226 32.9655 0.769226 17.3488C0.769226 8.16722 8.25985 0.724121 17.5 0.724121C26.7401 0.724121 34.2308 8.16722 34.2308 17.3488Z" fill="white" fill-opacity="0.5"/>
<path d="M33.7308 17.3488C33.7308 24.9848 29.6346 31.9062 25.4793 36.9543C23.4073 39.4716 21.3341 41.5065 19.7789 42.912C19.0017 43.6144 18.3547 44.1588 17.9031 44.5268C17.7432 44.657 17.6079 44.7651 17.5 44.8503C17.3921 44.7651 17.2568 44.657 17.0969 44.5268C16.6453 44.1588 15.9983 43.6144 15.2211 42.912C13.6659 41.5065 11.5927 39.4716 9.52065 36.9543C5.36536 31.9062 1.26923 24.9848 1.26923 17.3488C1.26923 8.44636 8.53298 1.22412 17.5 1.22412C26.467 1.22412 33.7308 8.44636 33.7308 17.3488Z" stroke="#BD8A5D" stroke-opacity="0.6"/>
<path d="M32 17.7931C32 31.069 17.5 42.8276 17.5 42.8276C17.5 42.8276 3 31.069 3 17.7931C3 9.6231 9.49187 3 17.5 3C25.5081 3 32 9.6231 32 17.7931Z" fill="url(#paint0_linear)"/>
<path d="M27.9966 17.8227C27.8819 17.7418 27.7673 17.6879 27.6526 17.6339C27.6239 17.526 27.5666 17.4181 27.5092 17.3102C27.4519 17.2023 27.3946 17.1214 27.3086 17.0135C27.1652 16.8247 26.9645 16.6628 26.7352 16.5549C26.2765 16.3391 25.7318 16.3391 25.2731 16.5549C25.0438 16.6628 24.8431 16.8247 24.6997 17.0135C24.5564 17.2023 24.4704 17.4181 24.4417 17.6609C24.3844 18.1195 24.5851 18.605 24.9577 18.9017C25.3304 19.1985 25.8465 19.3064 26.3338 19.1715V19.1445C25.8751 19.2524 25.3591 19.1175 25.0438 18.8208C24.9291 18.7129 24.8144 18.605 24.7571 18.4701C25.0438 18.1195 25.4164 17.8497 25.8465 17.7148C26.3052 17.58 26.7925 17.58 27.2226 17.7148C27.3086 17.7418 27.4232 17.7958 27.5092 17.8227C27.5379 17.9846 27.5666 18.1464 27.5666 18.3083C27.5666 18.5241 27.5379 18.7399 27.4806 18.9557C27.3659 19.3603 27.1366 19.7649 26.8212 20.0617C26.6492 20.2235 26.4772 20.3314 26.2765 20.4663C26.1905 20.5202 26.0758 20.5742 25.9898 20.6281C25.9038 20.6821 25.7891 20.736 25.6745 20.763C25.2158 20.9518 24.6997 21.0058 24.2124 20.9788C23.811 18.5511 23.295 15.0173 23.2376 12.5087C23.2376 12.2659 23.1516 12.0771 23.0083 12.0771C22.8936 12.0771 22.7789 12.4277 22.6929 12.6166C22.3202 13.7765 21.2022 15.9615 20.0841 17.9846C19.7114 17.6339 19.3101 17.3102 18.8227 17.0405C18.6793 16.9595 18.5073 16.8786 18.3353 16.7977C18.0773 16.6358 17.8193 16.5279 17.5326 16.42C17.4753 16.3931 17.4179 16.3931 17.3606 16.3661C17.4466 16.3391 17.5039 16.2852 17.5899 16.2312C18.0486 15.9615 18.4787 15.6647 18.88 15.3141C19.2814 14.9904 19.6254 14.6127 19.9694 14.2351L20.2274 13.9383L20.4568 13.6416C20.6001 13.4528 20.7721 13.264 20.9442 13.0751C21.6035 12.3468 22.3776 11.6724 23.2663 11.2408C23.4957 11.1329 23.725 11.052 23.9543 10.9981C24.1837 10.9441 24.4417 10.9441 24.6997 10.9441C25.2158 10.9711 25.7031 11.079 26.1905 11.2678V11.2408C25.7318 11.025 25.2158 10.8632 24.6997 10.8092C24.4417 10.7823 24.1837 10.7823 23.897 10.8092C23.639 10.8632 23.381 10.9441 23.123 11.025C22.6356 11.2408 22.2056 11.5106 21.8042 11.8343C21.4029 12.158 21.0302 12.4817 20.6575 12.8593C20.4855 13.0482 20.3135 13.237 20.1414 13.4258L19.8834 13.6956L19.6254 13.9653C19.2814 14.316 18.9087 14.6397 18.5073 14.9364C18.106 15.2331 17.7046 15.4759 17.2459 15.6917C17.0166 15.7996 16.8159 15.8805 16.5866 15.9345C16.5005 15.9615 16.4432 15.9615 16.3859 15.9615C16.4432 15.4489 16.5005 14.9364 16.5866 14.4509C16.7299 13.6956 16.9592 12.9403 17.3033 12.2659C17.6473 11.5915 18.1347 10.9711 18.7654 10.4586L19.1954 10.0809L18.6507 10.054C17.934 10.027 17.2459 10 16.5292 10C15.8125 10 15.1245 10 14.4077 10C14.0637 10 13.691 10.027 13.347 10.054C13.175 10.054 13.003 10.0809 12.8023 10.1079C12.6303 10.1349 12.4583 10.1888 12.2863 10.2428C11.9423 10.3507 11.5982 10.4855 11.3116 10.7013C11.0249 10.9171 10.7669 11.1599 10.6235 11.4836H10.6522C10.8242 11.1869 11.0822 10.9711 11.3976 10.8092C11.6842 10.6474 11.9996 10.5125 12.3436 10.4316C12.5156 10.4046 12.6876 10.3507 12.831 10.3507C13.003 10.3237 13.175 10.3237 13.347 10.3237C13.691 10.3237 14.0351 10.3237 14.4077 10.3237C15.1245 10.3507 15.8125 10.3507 16.5292 10.3776C17.0166 10.4046 17.5039 10.4316 17.9913 10.4586C17.4753 10.8632 17.0166 11.3757 16.6726 11.9422C16.2139 12.6705 15.9272 13.4798 15.7552 14.316C15.5832 15.1252 15.5545 15.9615 15.5258 16.7707C15.4971 17.4451 15.4111 18.1195 15.2391 18.7669C15.0385 18.4432 14.8664 18.1464 14.6658 17.8227C13.3757 15.6917 11.8563 12.2659 11.8563 12.2659C11.7702 12.104 11.6842 12.0231 11.5982 12.0231C11.5122 12.0231 11.4262 12.131 11.3976 12.2929C11.3976 12.2929 11.2542 13.5067 11.0249 15.1792C10.7669 15.0443 10.4802 14.9634 10.1935 14.9094C9.76345 14.8285 9.30476 14.8285 8.84606 14.9094C8.41604 14.9904 7.98601 15.1792 7.61332 15.422C7.44131 15.5568 7.2693 15.6917 7.09729 15.8536C6.95394 16.0154 6.8106 16.1773 6.69593 16.3661C6.20856 17.0674 5.95055 17.9306 6.00788 18.7938C6.03655 19.2254 6.15123 19.6301 6.29457 20.0347C6.38057 20.2235 6.46658 20.4393 6.60992 20.6012C6.7246 20.79 6.86794 20.9518 7.03995 21.1137C7.3553 21.4374 7.72799 21.6802 8.10068 21.896C8.50204 22.1118 8.9034 22.2736 9.33343 22.3815C9.47677 22.4085 9.62011 22.4624 9.76345 22.4894C9.59144 23.2447 9.41943 23.7033 9.27609 23.7033C8.98941 23.7033 8.64538 23.7033 8.50204 23.7303C8.38737 23.7303 8.30136 23.8112 8.30136 23.8651C8.30136 23.9191 8.30136 24 8.30136 24H11.5409C11.5409 24 11.6269 23.973 11.6269 23.8651C11.6269 23.8112 11.5696 23.7572 11.4836 23.7303C11.3689 23.7033 10.9962 23.7303 10.6808 23.6763C10.4228 23.6224 10.5088 23.4066 10.5088 22.5434C10.9962 22.5703 11.5122 22.5434 11.9996 22.4355C12.8883 22.2736 13.7197 21.896 14.4077 21.3295C14.6658 21.1137 14.9238 20.8709 15.1245 20.6012C15.6405 21.4644 16.2999 22.6243 16.5866 23.0829C16.9306 23.6493 17.0166 23.8112 17.1599 23.8112C17.3319 23.8112 17.2459 23.8112 17.6473 23.1368L19.6254 19.4412C19.7114 19.6031 19.7974 19.7649 19.9121 19.9268C20.1701 20.3314 20.4568 20.736 20.7722 21.1137C21.1162 21.4913 21.4889 21.815 21.8902 22.1118C22.2916 22.4085 22.7503 22.6513 23.2376 22.8131C23.295 22.8401 23.3523 22.8401 23.4096 22.8671C23.4383 23.0829 23.4383 23.2447 23.4383 23.2987C23.4096 23.6763 22.4349 23.6763 22.3202 23.6763C22.1482 23.6763 22.1769 23.9461 22.1769 23.9461H25.8178C26.0471 23.9461 25.9898 23.6493 25.8178 23.6493C25.7031 23.6493 25.2731 23.6493 24.9577 23.6223C24.8144 23.6223 24.6711 23.5145 24.6424 23.3526C24.6424 23.2717 24.6137 23.1908 24.5851 23.0829C24.6424 23.0829 24.7284 23.1098 24.7857 23.1098C25.3018 23.1368 25.8178 23.0829 26.3338 22.921C26.8212 22.7592 27.2799 22.5164 27.6813 22.1927C28.0826 21.869 28.398 21.4913 28.656 21.0597C28.914 20.6012 29 20.1156 29 19.6301C28.9713 19.1445 28.828 18.659 28.5413 18.2274C28.398 18.1464 28.1973 17.9576 27.9966 17.8227ZM27.2799 17.526C26.7925 17.3911 26.2478 17.4451 25.7605 17.6069C25.3304 17.7688 24.9577 18.0655 24.6997 18.4432C24.5851 18.2004 24.5277 17.9306 24.5851 17.6879C24.6137 17.4721 24.6997 17.2832 24.8431 17.0944C24.9864 16.9326 25.1584 16.7977 25.3591 16.6898C25.7605 16.501 26.2478 16.5279 26.6492 16.7168C26.8499 16.8247 27.0219 16.9595 27.1366 17.1214C27.1939 17.2023 27.2512 17.3102 27.3086 17.3911C27.3372 17.4451 27.3659 17.4721 27.3659 17.526C27.3372 17.526 27.3086 17.526 27.2799 17.526ZM11.3976 15.7996C11.6842 15.9884 11.9136 16.2582 12.0569 16.5549C12.2289 16.9056 12.2863 17.2832 12.2289 17.6339C12.1716 18.0116 12.0283 18.3622 11.7989 18.659C11.5696 18.9287 11.2542 19.1175 10.8815 19.2254C11.0535 17.9846 11.2542 16.6898 11.3976 15.7996ZM7.46998 20.8439C7.32663 20.7091 7.21196 20.5742 7.12595 20.4123C7.01128 20.2505 6.92528 20.0886 6.83927 19.9268C6.69593 19.5761 6.58125 19.2254 6.55259 18.8478C6.46658 18.0925 6.66726 17.3372 7.09729 16.6898C7.21196 16.5279 7.32663 16.3661 7.44131 16.2312C7.55598 16.0963 7.69932 15.9615 7.87134 15.8536C8.18669 15.6108 8.55938 15.4489 8.93207 15.368C9.62011 15.2062 10.3368 15.2871 10.9675 15.5838C10.8529 16.447 10.7095 17.4181 10.5662 18.3622C10.0788 18.3892 9.62011 18.578 9.27609 18.8748C9.24742 18.8478 9.21875 18.8208 9.19009 18.7938C9.07541 18.659 8.96074 18.4971 8.9034 18.3083C8.78873 17.9576 8.87473 17.526 9.07541 17.2023C9.30476 16.8786 9.73479 16.6898 10.1361 16.7168V16.6898C9.70612 16.6089 9.24742 16.7977 8.98941 17.1214C8.73139 17.4451 8.61672 17.9037 8.73139 18.3083C8.78873 18.5511 8.93207 18.7938 9.13275 18.9827C8.76006 19.3603 8.55938 19.8459 8.53071 20.3854C8.53071 20.9518 8.76006 21.5183 9.19009 21.896C9.19009 21.896 9.19008 21.896 9.21875 21.896C8.55938 21.6802 7.95734 21.3295 7.46998 20.8439ZM9.93547 22.0039C9.76345 21.9229 9.56278 21.815 9.41943 21.6802C9.04674 21.3565 8.84606 20.8709 8.84606 20.3854C8.84606 19.9538 8.98941 19.4952 9.30476 19.1445C9.39076 19.1985 9.4481 19.2524 9.53411 19.3064C9.79212 19.4412 10.0788 19.5222 10.3942 19.5222C10.2508 20.4393 10.1075 21.3025 9.93547 22.0039ZM10.4515 19.2794C10.1935 19.2794 9.9068 19.2254 9.67745 19.1175C9.62011 19.0906 9.53411 19.0366 9.47677 19.0096C9.76345 18.7399 10.1648 18.5511 10.5948 18.4971C10.5375 18.7399 10.4802 19.0096 10.4515 19.2794ZM14.7231 20.1156C14.5224 20.4393 14.2644 20.7091 13.9777 20.9788C13.4044 21.4913 12.6876 21.896 11.9136 22.0848C11.5409 22.1657 11.1682 22.2197 10.7669 22.2197C10.6808 22.2197 10.6235 22.2197 10.5662 22.2197C10.5948 21.5183 10.7095 20.5742 10.8529 19.5491H10.8815C11.3402 19.4682 11.7416 19.2254 12.0569 18.9017C12.3436 18.578 12.5156 18.1464 12.573 17.7148C12.6303 17.2832 12.5443 16.8516 12.3436 16.474C12.1429 16.0963 11.8276 15.7726 11.4549 15.5299C11.5409 14.9634 11.5982 14.6127 11.5982 14.6127H11.6842C11.8849 15.0443 14.3791 19.3873 14.5511 19.684C14.5798 19.711 14.6658 19.8728 14.7804 20.0886C14.7518 20.0617 14.7518 20.0886 14.7231 20.1156ZM17.5613 22.4894C17.5613 22.4894 16.7586 21.1946 15.8125 19.684C15.8698 19.5491 15.8985 19.4412 15.9558 19.3064C16.1852 18.578 16.2999 17.8227 16.3572 17.0674C16.7012 17.0674 17.0166 17.0674 17.3033 17.1484C17.7046 17.2563 18.0773 17.4721 18.3927 17.7688C18.708 18.0655 18.966 18.4162 19.2241 18.7938C19.3101 18.9017 19.3674 19.0366 19.4534 19.1445C18.4213 21.0328 17.5613 22.4894 17.5613 22.4894ZM19.8261 18.4971C19.7401 18.3353 19.6254 18.1734 19.5107 18.0116C19.6541 18.1195 19.7688 18.2274 19.9121 18.3353C19.8834 18.3892 19.8548 18.4432 19.8261 18.4971ZM22.1769 14.8555H22.2342C22.2342 14.8555 22.7503 18.2274 23.123 20.763C23.0656 20.736 23.037 20.736 22.9796 20.7091C22.5496 20.5202 22.1769 20.2775 21.8616 19.9538C21.5462 19.657 21.2595 19.2794 20.9728 18.9287C20.7721 18.7129 20.5715 18.4701 20.3708 18.2813L22.1769 14.8555ZM22.2629 21.7881C21.8902 21.5183 21.5462 21.1946 21.2595 20.8709C20.9728 20.5202 20.7148 20.1426 20.4855 19.738C20.3135 19.4682 20.1701 19.1715 19.9981 18.8748L20.1414 18.605C20.3135 18.7669 20.5141 18.9557 20.6861 19.1445C21.0015 19.4682 21.2882 19.8459 21.6322 20.1696C21.9762 20.4933 22.4063 20.763 22.8363 20.9518C22.9223 20.9788 23.037 21.0328 23.123 21.0597C23.209 21.5723 23.2663 22.0578 23.3236 22.4355C22.9796 22.2466 22.6069 22.0578 22.2629 21.7881ZM28.2833 21.0058C28.0539 21.3834 27.7386 21.7341 27.3946 22.0039C27.0505 22.2736 26.6205 22.4894 26.1905 22.6243C25.7605 22.7592 25.2731 22.8131 24.8144 22.7592C24.6997 22.7592 24.5851 22.7322 24.4991 22.7322C24.413 22.3276 24.327 21.815 24.241 21.2216C24.2697 21.2216 24.2984 21.2216 24.327 21.2216C24.8144 21.2216 25.3018 21.1407 25.7605 20.9518C25.8751 20.8979 25.9898 20.8709 26.1045 20.79C26.2192 20.736 26.3338 20.6821 26.4198 20.6012C26.6205 20.4663 26.8212 20.3314 26.9932 20.1696C27.3372 19.8459 27.5952 19.4143 27.7099 18.9827C27.7673 18.7669 27.7959 18.5241 27.7959 18.2813C27.7959 18.1734 27.7959 18.0655 27.7673 17.9576C27.7959 17.9846 27.8246 17.9846 27.8246 18.0116C27.9966 18.1464 28.1399 18.3083 28.2546 18.4971C28.484 18.8748 28.57 19.3064 28.57 19.738C28.57 20.1965 28.484 20.6281 28.2833 21.0058Z" fill="white"/>
<defs>
<linearGradient id="paint0_linear" x1="17.5" y1="3" x2="17.5" y2="42.8276" gradientUnits="userSpaceOnUse">
<stop stop-color="#E8AF7D"/>
<stop offset="1" stop-color="#BD8A5D"/>
</linearGradient>
</defs>
</svg>
