<svg width="77" height="73" viewBox="0 0 77 73" fill="none" xmlns="http://www.w3.org/2000/svg">
<g clip-path="url(#clip0)">
<path d="M72.5896 5.9071C72.5896 6.6785 73.2478 7.30384 74.0597 7.30384C74.8717 7.30384 75.5299 6.6785 75.5299 5.9071C75.5299 5.1357 74.8717 4.51036 74.0597 4.51036C73.2478 4.51036 72.5896 5.1357 72.5896 5.9071Z" fill="#BD8A5D"/>
<path d="M43.9212 0.523772C54.7636 0.523772 58.4391 5.90149 58.4391 5.90149C58.4391 5.90149 61.9307 0.523773 72.7732 0.523773" stroke="#BD8A5D" stroke-miterlimit="10" stroke-linecap="round" stroke-linejoin="round"/>
<path d="M7.35075 70.2606C6.79944 71.4749 5.69682 72.1688 4.22665 72.1688C2.20517 72.1688 0.551237 70.6076 0.551237 68.6993L0.55124 0.52377L72.7732 0.523773C74.7947 0.523773 76.4486 2.08505 76.4486 3.99327C76.4486 5.20759 75.7135 6.42191 74.4271 6.94234" stroke="#BD8A5D" stroke-miterlimit="10" stroke-linecap="round" stroke-linejoin="round"/>
<path d="M4.96188 69.9192C4.96188 70.6906 5.62009 71.316 6.43205 71.316C7.244 71.316 7.90222 70.6906 7.90222 69.9192C7.90222 69.1478 7.244 68.5225 6.43205 68.5225C5.62009 68.5225 4.96188 69.1478 4.96188 69.9192Z" fill="#BD8A5D"/>
<path d="M0.551277 41.4605C0.551277 51.6955 6.24817 55.1649 6.24817 55.1649C6.24817 55.1649 0.551277 58.461 0.551276 68.8694" stroke="#BD8A5D" stroke-miterlimit="10" stroke-linecap="round" stroke-linejoin="round"/>
<path d="M27.3818 25.8477L27.3818 18.3883L19.4797 18.3883L19.4797 25.8477L27.3818 25.8477Z" stroke="#BD8A5D" stroke-miterlimit="10" stroke-linecap="round" stroke-linejoin="round"/>
<path d="M40.7972 17.521C40.7972 18.479 41.62 19.2557 42.6349 19.2557C43.6499 19.2557 44.4727 18.479 44.4727 17.521C44.4727 16.5629 43.6499 15.7862 42.6349 15.7862C41.62 15.7862 40.7972 16.5629 40.7972 17.521Z" fill="#BD8A5D" stroke="#BD8A5D" stroke-miterlimit="10" stroke-linecap="round" stroke-linejoin="round"/>
<path d="M18.7448 38.5114C18.7448 38.5114 23.8904 38.6849 23.8904 43.0217C23.8904 47.1851 19.8474 48.3994 17.8259 48.3994C12.129 48.3994 10.1075 43.5421 10.1075 40.2461C10.1075 38.3379 10.1075 9.36764 10.1075 9.36764C10.1075 9.36764 40.6135 9.36764 42.635 9.36764C46.1266 9.36765 51.2722 11.2759 51.2722 16.6536C51.2722 18.7353 49.802 22.3782 45.5753 22.3782C40.981 22.3782 40.7973 17.521 40.7973 17.521" stroke="#BD8A5D" stroke-miterlimit="10" stroke-linecap="round" stroke-linejoin="round"/>
<path d="M16.9068 40.0726C16.9068 41.0307 17.7296 41.8074 18.7446 41.8074C19.7595 41.8074 20.5823 41.0307 20.5823 40.0726C20.5823 39.1146 19.7595 38.3379 18.7446 38.3379C17.7296 38.3379 16.9068 39.1146 16.9068 40.0726Z" fill="#BD8A5D" stroke="#BD8A5D" stroke-miterlimit="10" stroke-linecap="round" stroke-linejoin="round"/>
<path d="M0.551201 0.523772L19.4796 18.3917" stroke="#BD8A5D" stroke-miterlimit="10" stroke-linecap="round" stroke-linejoin="round"/>
</g>
<defs>
<clipPath id="clip0">
<rect width="72.6859" height="77" fill="white" transform="translate(77) rotate(90)"/>
</clipPath>
</defs>
</svg>
