<svg width="35" height="35" viewBox="0 0 35 35" fill="none" xmlns="http://www.w3.org/2000/svg">
<g clip-path="url(#clip0)">
<path d="M32.9953 2.84013C32.9953 3.2092 33.2945 3.50839 33.6635 3.50839C34.0326 3.50839 34.3318 3.2092 34.3318 2.84013C34.3318 2.47106 34.0326 2.17187 33.6635 2.17187C33.2945 2.17187 32.9953 2.47106 32.9953 2.84013Z" fill="#BD8A5D"/>
<path d="M19.9642 0.25061C24.8926 0.25061 26.5632 2.84011 26.5632 2.84011C26.5632 2.84011 28.1503 0.25061 33.0787 0.25061" stroke="#BD8A5D" stroke-miterlimit="10" stroke-linecap="round" stroke-linejoin="round"/>
<path d="M3.34127 33.8306C3.09067 34.4153 2.58948 34.7494 1.92123 34.7494C1.00237 34.7494 0.250582 33.9976 0.250582 33.0788L0.250583 0.250609L33.0787 0.25061C33.9976 0.25061 34.7494 1.0024 34.7494 1.92125C34.7494 2.50598 34.4153 3.09071 33.8305 3.3413" stroke="#BD8A5D" stroke-miterlimit="10" stroke-linecap="round" stroke-linejoin="round"/>
<path d="M2.2554 33.6635C2.2554 34.0326 2.55459 34.3318 2.92366 34.3318C3.29273 34.3318 3.59192 34.0326 3.59192 33.6635C3.59192 33.2944 3.29273 32.9952 2.92366 32.9952C2.55459 32.9952 2.2554 33.2944 2.2554 33.6635Z" fill="#BD8A5D"/>
<path d="M0.250587 19.9642C0.250587 24.8926 2.84009 26.5633 2.84009 26.5633C2.84009 26.5633 0.250587 28.1504 0.250587 33.1623" stroke="#BD8A5D" stroke-miterlimit="10" stroke-linecap="round" stroke-linejoin="round"/>
<path d="M12.4463 12.4463L12.4463 8.85437L8.8544 8.85437L8.8544 12.4463L12.4463 12.4463Z" stroke="#BD8A5D" stroke-miterlimit="10" stroke-linecap="round" stroke-linejoin="round"/>
<path d="M18.5442 8.43676C18.5442 8.8981 18.9182 9.27208 19.3795 9.27208C19.8409 9.27208 20.2148 8.8981 20.2148 8.43676C20.2148 7.97543 19.8409 7.60144 19.3795 7.60144C18.9182 7.60144 18.5442 7.97543 18.5442 8.43676Z" fill="#BD8A5D" stroke="#BD8A5D" stroke-miterlimit="10" stroke-linecap="round" stroke-linejoin="round"/>
<path d="M8.52034 18.5442C8.52034 18.5442 10.8592 18.6277 10.8592 20.716C10.8592 22.7208 9.02153 23.3055 8.10268 23.3055C5.51318 23.3055 4.59432 20.9666 4.59432 19.3795C4.59432 18.4606 4.59432 4.51074 4.59432 4.51074C4.59432 4.51074 18.4607 4.51074 19.3795 4.51074C20.9666 4.51074 23.3055 5.4296 23.3055 8.0191C23.3055 9.02148 22.6373 10.7757 20.716 10.7757C18.6277 10.7757 18.5442 8.43676 18.5442 8.43676" stroke="#BD8A5D" stroke-miterlimit="10" stroke-linecap="round" stroke-linejoin="round"/>
<path d="M7.68495 19.2959C7.68495 19.7572 8.05893 20.1312 8.52027 20.1312C8.9816 20.1312 9.35559 19.7572 9.35559 19.2959C9.35559 18.8346 8.9816 18.4606 8.52027 18.4606C8.05893 18.4606 7.68495 18.8346 7.68495 19.2959Z" fill="#BD8A5D" stroke="#BD8A5D" stroke-miterlimit="10" stroke-linecap="round" stroke-linejoin="round"/>
<path d="M0.250553 0.25061L8.85437 8.85443" stroke="#BD8A5D" stroke-miterlimit="10" stroke-linecap="round" stroke-linejoin="round"/>
</g>
<defs>
<clipPath id="clip0">
<rect width="35" height="35" fill="white" transform="translate(35) rotate(90)"/>
</clipPath>
</defs>
</svg>
