<svg width="95" height="72" viewBox="0 0 95 72" fill="none" xmlns="http://www.w3.org/2000/svg">
<g clip-path="url(#clip0)">
<path d="M0 54.729V54.3823C0 54.3328 0.0500893 54.2833 0.100179 54.2833L0.400715 54.2337C0.651162 54.2337 0.851519 54.1842 0.901608 54.0852C0.951698 53.9861 1.05188 53.887 1.05188 53.6889V48.2408C1.05188 48.0427 1.00179 47.9436 0.901608 47.8941C0.80143 47.8446 0.651162 47.795 0.400715 47.7455L0.100179 47.696C0.0500893 47.696 0 47.6465 0 47.5969V47.2502L0.0500893 47.2007C1.15206 47.2007 1.70304 47.2502 1.80322 47.2502H3.50625L3.45617 47.2998V47.6465C3.45617 47.696 3.40608 47.7455 3.35599 47.7455L3.05545 47.795C2.805 47.795 2.65474 47.8446 2.55456 47.9436C2.45438 48.0427 2.40429 48.1417 2.40429 48.2903V50.7668H6.21108V48.2903C6.21108 48.0922 6.16099 47.9932 6.06081 47.9436C5.96063 47.8941 5.81036 47.8446 5.55992 47.8446L5.25938 47.795C5.20929 47.795 5.1592 47.7455 5.1592 47.696V47.3493L5.10911 47.2998C6.16099 47.2998 6.76206 47.3493 6.81215 47.3493L8.56528 47.2998V47.3493V47.696C8.56528 47.7455 8.51519 47.795 8.4651 47.795L8.16456 47.8446C7.91412 47.8941 7.71376 47.9436 7.66367 47.9932C7.56349 48.0427 7.5134 48.1913 7.5134 48.3399V53.8871C7.5134 54.0356 7.56349 54.1842 7.66367 54.2833C7.76385 54.3823 7.91412 54.4319 8.21465 54.4319L8.51519 54.4814C8.56528 54.4814 8.61537 54.5309 8.61537 54.5804V54.9271L8.56528 54.9767C7.41322 54.9767 6.81215 54.9271 6.76206 54.9271L5.05902 54.9767L5.10911 54.9271V54.5804C5.10911 54.5309 5.1592 54.4814 5.20929 54.4814L5.50983 54.4319C5.96063 54.3823 6.16099 54.2337 6.16099 53.8871V51.3116H2.40429V53.8871C2.40429 54.0356 2.45438 54.1842 2.55456 54.2833C2.65474 54.3328 2.805 54.4319 3.05545 54.4319L3.35599 54.4814C3.40608 54.4814 3.45617 54.5309 3.45617 54.5804V54.9271L3.50625 54.9767C2.40429 54.9767 1.80322 54.9271 1.75313 54.9271H0V54.729ZM10.9195 51.1134C10.9195 49.9248 11.3202 48.9837 12.0715 48.1913C12.8229 47.4483 13.7746 47.0521 14.8765 47.0521C15.9785 47.0521 16.8801 47.3988 17.6315 48.0922C18.3828 48.7856 18.7835 49.7267 18.7835 50.8658C18.7835 52.005 18.4329 52.946 17.7316 53.6889C17.0304 54.4319 16.0286 54.8281 14.7764 54.8281C13.6744 54.8281 12.7728 54.4814 12.0715 53.7385C11.2701 53.0946 10.9195 52.2031 10.9195 51.1134ZM12.2218 50.9649C12.2218 51.9554 12.4722 52.7974 12.9731 53.3918C13.474 54.0356 14.1252 54.3823 14.9266 54.3823C15.678 54.3823 16.279 54.0852 16.7298 53.5403C17.1806 52.946 17.381 52.1535 17.381 51.2125C17.381 50.1724 17.1306 49.3304 16.5796 48.6866C16.0787 48.0427 15.4275 47.7455 14.6762 47.7455C13.9749 47.7455 13.4239 48.0427 12.9231 48.5875C12.4722 49.0828 12.2218 49.8752 12.2218 50.9649ZM21.0876 54.729V54.3823C21.0876 54.3328 21.1377 54.3328 21.2379 54.2833C21.5384 54.2833 21.7388 54.2337 21.889 54.1347C21.9892 54.0852 22.0894 53.8375 22.0894 53.5403L22.6905 48.0922C22.6905 47.9436 22.6404 47.8941 22.5402 47.8446C22.44 47.795 22.1896 47.7455 21.839 47.7455C21.7388 47.7455 21.6887 47.696 21.6887 47.696V47.3493L21.7388 47.2998L23.8926 47.3493L26.0965 53.2432L28.5509 47.2998L30.6046 47.2502L30.6547 47.2998V47.5969C30.6547 47.6465 30.6046 47.696 30.5044 47.7455C30.1037 47.795 29.8533 47.8446 29.8032 47.8941C29.703 47.9436 29.6529 48.0922 29.6529 48.2903C29.6529 48.2903 29.6529 48.3399 29.6529 48.3894C29.6529 48.4389 29.6529 48.4884 29.6529 48.538L30.0536 53.6394C30.0536 53.8871 30.1538 54.0852 30.254 54.1347C30.3541 54.1842 30.5545 54.2833 30.9051 54.2833C31.0053 54.2833 31.0554 54.3328 31.0554 54.3823V54.729L31.0053 54.7786C30.1538 54.7786 29.703 54.729 29.6028 54.729L28.05 54.7786L27.9999 54.729V54.3823C27.9999 54.3328 28.05 54.2833 28.1001 54.2833L28.4507 54.2337C28.601 54.2337 28.7012 54.1842 28.8014 54.0852C28.8515 54.0356 28.8515 53.887 28.8515 53.6889L28.5509 48.538L25.9463 54.7786C25.8962 54.8776 25.8461 54.9271 25.796 54.9271C25.6958 54.9271 25.6457 54.8776 25.5957 54.7786L23.2415 48.637H23.1914L22.6404 53.5899C22.6404 53.8375 22.6905 53.9861 22.7907 54.0852C22.8908 54.1842 23.0912 54.2337 23.4418 54.2337C23.4919 54.2337 23.542 54.2833 23.542 54.3328V54.6795V54.729C22.8407 54.729 22.44 54.6795 22.2898 54.6795H21.0876V54.729ZM33.2593 54.729V54.3823C33.2593 54.3328 33.3094 54.2833 33.3595 54.2833L33.7101 54.2337C34.1108 54.1842 34.3112 53.9366 34.3112 53.5403V48.2408C34.3112 48.0427 34.2611 47.9436 34.211 47.8941C34.1108 47.8446 33.9606 47.795 33.7101 47.795L33.3595 47.7455C33.3094 47.7455 33.2593 47.696 33.2593 47.696V47.2998V47.2502C34.4114 47.2502 34.9624 47.2998 35.0125 47.2998H37.4167L39.0697 47.2502L39.1198 47.2998C39.1198 47.795 39.22 48.4389 39.3702 49.2809L38.9695 49.3304C38.9194 49.1323 38.8693 48.9342 38.8192 48.8351C38.7191 48.5875 38.6189 48.4389 38.5688 48.3399C38.4686 48.1913 38.3184 48.0427 38.118 47.9436C37.9176 47.8446 37.7173 47.795 37.4668 47.795H36.1645C35.864 47.795 35.7137 47.9436 35.7137 48.1913V50.5686H36.9158C37.1663 50.5686 37.3166 50.5191 37.3667 50.4201C37.4668 50.321 37.5169 50.1724 37.567 49.9743L37.6672 49.6276C37.6672 49.5781 37.7173 49.5285 37.7674 49.5285H38.0178C38.0178 49.5285 38.0679 49.5781 38.0679 49.6276C38.0178 50.321 37.9677 50.7172 37.9677 50.8163L38.0679 51.9059L38.0178 52.005H37.7674C37.7173 52.005 37.6672 51.9554 37.6672 51.9059L37.567 51.5097C37.5169 51.163 37.2665 50.9649 36.9158 50.9649H35.7137V53.4413C35.7137 53.6394 35.7638 53.7385 35.864 53.8871C35.9641 53.9861 36.0643 54.0852 36.2146 54.0852H37.7674C38.5688 54.0852 39.0697 53.6394 39.2701 52.7479L39.6708 52.7974L39.3201 54.6795L39.2701 54.729C38.4185 54.729 37.9176 54.6795 37.8175 54.6795H34.9123H33.2593V54.729ZM42.025 52.2031C42.025 51.5592 42.2754 50.9649 42.7262 50.3705C43.177 49.8257 43.9784 49.2314 45.0804 48.637C44.5294 47.696 44.279 46.9531 44.279 46.3092C44.279 45.7644 44.5294 45.3186 44.9802 44.8729C45.431 44.4271 46.0321 44.229 46.7835 44.229C47.3845 44.229 47.8854 44.3776 48.2861 44.6747C48.6868 45.0214 48.8872 45.4177 48.8872 45.913C48.8872 46.3587 48.6868 46.8045 48.236 47.2998C47.7852 47.795 47.1842 48.2408 46.4829 48.637L46.533 48.7856C46.9337 49.479 47.5849 50.4201 48.5366 51.6583C49.6886 50.0238 50.2396 48.9837 50.2396 48.538C50.2396 48.3399 50.1394 48.2903 49.9892 48.2903H49.5384C49.4883 48.2903 49.4382 48.2408 49.4382 48.1913V47.8941V47.8446C50.1895 47.8446 50.6904 47.8941 50.8407 47.8941L52.2432 47.8446L52.2933 47.8941V48.1417C52.2933 48.2408 52.2432 48.2903 52.143 48.2903H51.6922C51.4418 48.2903 51.2414 48.3894 51.0911 48.5875C50.9409 48.7856 50.6904 49.1818 50.3398 49.8257C49.8389 50.7668 49.3881 51.5592 48.9373 52.2526L49.4883 52.9955C49.9892 53.6889 50.44 54.0356 50.7405 54.0356C51.2414 54.0356 51.6421 53.7385 51.9927 53.1441L52.2432 53.2927C52.0428 53.8375 51.8425 54.2833 51.5419 54.5309C51.2414 54.8281 50.9409 54.9767 50.6403 54.9767C50.3899 54.9767 50.2396 54.9767 50.0893 54.9271C49.9391 54.8776 49.7387 54.7786 49.4883 54.63C49.2378 54.4814 48.9874 54.1842 48.7369 53.8871L48.2861 53.2927C47.4346 54.4319 46.4328 55.0262 45.2307 55.0262C44.279 55.0262 43.5276 54.8281 42.9266 54.3823C42.3255 53.8375 42.025 53.1441 42.025 52.2031ZM43.3273 52.2031C43.3273 52.946 43.5276 53.4908 43.8783 53.8375C44.2289 54.1842 44.7298 54.3823 45.2808 54.3823C45.8318 54.3823 46.2826 54.2337 46.5831 53.9861C46.8836 53.7385 47.2843 53.2927 47.7852 52.6488L46.3326 50.6677C45.8318 49.9743 45.5312 49.479 45.3809 49.2314C44.5795 49.6771 44.0786 50.1229 43.728 50.5686C43.4776 51.0639 43.3273 51.6087 43.3273 52.2031ZM45.431 46.3092C45.431 46.7054 45.6314 47.2502 46.0321 48.0427C46.5831 47.696 46.9838 47.3493 47.2843 46.9531C47.5849 46.5568 47.7351 46.2597 47.7351 45.9625C47.7351 45.6158 47.635 45.3186 47.4346 45.1205C47.2343 44.9224 46.9838 44.8233 46.6332 44.8233C46.3827 44.8233 46.0822 44.9719 45.8318 45.2196C45.5813 45.5167 45.431 45.8634 45.431 46.3092ZM54.6475 54.729V54.3823C54.6475 54.3328 54.6976 54.2833 54.7477 54.2833L55.0482 54.2337C55.2986 54.2337 55.499 54.1842 55.5491 54.0852C55.5992 53.9861 55.6994 53.887 55.6994 53.6889V48.2408C55.6994 48.0427 55.6493 47.9436 55.5491 47.8941C55.4489 47.8446 55.2986 47.795 55.0482 47.7455L54.7477 47.696C54.6976 47.696 54.6475 47.6465 54.6475 47.5969V47.2502L54.6976 47.2007C55.7995 47.2007 56.3505 47.2502 56.4507 47.2502L58.2038 47.2007L58.1537 47.2502V47.5969C58.1537 47.6465 58.1036 47.696 58.0536 47.696L57.753 47.7455C57.5026 47.7455 57.3523 47.795 57.2521 47.8941C57.1519 47.9931 57.1019 48.0922 57.1019 48.2408V50.7172H60.9086V48.2408C60.9086 48.0427 60.8586 47.9436 60.7584 47.8941C60.6582 47.8446 60.5079 47.795 60.2575 47.795L59.9569 47.7455C59.9069 47.7455 59.8568 47.696 59.8568 47.6465V47.2998L59.8067 47.2502C60.8586 47.2502 61.4596 47.2998 61.5097 47.2998L63.2628 47.2502V47.2998V47.6465C63.2628 47.696 63.2128 47.7455 63.1627 47.7455L62.8621 47.795C62.6117 47.8446 62.4113 47.8941 62.3612 47.9436C62.2611 47.9932 62.211 48.1417 62.211 48.2903V53.8375C62.211 53.9861 62.2611 54.1347 62.3612 54.2337C62.4614 54.3328 62.6117 54.3823 62.9122 54.3823L63.2128 54.4319C63.2628 54.4319 63.3129 54.4814 63.3129 54.5309V54.8776L63.2628 54.9271C62.1108 54.9271 61.5097 54.8776 61.4596 54.8776L59.7566 54.9271L59.8067 54.8776V54.5309C59.8067 54.4814 59.8568 54.4319 59.9069 54.4319L60.2074 54.3823C60.6582 54.3328 60.8586 54.1842 60.8586 53.8375V51.262H57.0518V53.8375C57.0518 53.9861 57.1019 54.1347 57.202 54.2337C57.3022 54.2833 57.4525 54.3823 57.7029 54.3823L58.0035 54.4319C58.0536 54.4319 58.1036 54.4814 58.1036 54.5309V54.8776L58.1537 54.9271C57.0518 54.9271 56.4507 54.8776 56.4006 54.8776H54.6475V54.729ZM64.9659 54.729V54.3823C64.9659 54.3328 65.016 54.2833 65.0661 54.2833C65.2664 54.2833 65.4167 54.2337 65.4668 54.2337C65.567 54.1842 65.6671 54.1347 65.7673 54.0356C65.9176 53.9366 66.0178 53.788 66.0678 53.6394L68.9229 47.5474C69.0732 47.2502 69.2235 47.1016 69.4739 47.1016C69.7745 47.1016 70.0249 47.2502 70.1251 47.4979L72.5294 53.4908C72.6796 53.788 72.7798 53.9861 72.9301 54.0852C73.0804 54.1842 73.2807 54.2337 73.5312 54.2833C73.6313 54.2833 73.6814 54.3328 73.6814 54.3823V54.729L73.6313 54.7786C72.88 54.7786 72.4292 54.729 72.2789 54.729L70.4256 54.7786L70.3755 54.729V54.3823C70.3755 54.3328 70.4256 54.2833 70.4757 54.2833L70.7763 54.2337C71.2271 54.1842 71.4274 54.0852 71.4274 53.9366C71.4274 53.9366 71.4274 53.887 71.4274 53.8375C71.3773 53.788 71.3773 53.788 71.3773 53.7385L70.626 51.8564H67.821C67.6206 51.8564 67.4704 51.9059 67.4704 52.0545L66.719 53.7385C66.6689 53.8375 66.6689 53.887 66.6689 53.9366C66.6689 54.0852 66.8693 54.1842 67.3201 54.2337H67.5204C67.5705 54.2337 67.6206 54.2833 67.6206 54.3328V54.6795L67.5705 54.729C67.3201 54.729 67.0696 54.729 66.8192 54.729C66.5687 54.729 66.3684 54.729 66.2181 54.729C66.0678 54.729 65.9677 54.729 65.9176 54.729H64.9659ZM67.9712 51.2125C67.9712 51.3611 68.0714 51.4602 68.3219 51.4602H70.5759L69.3237 48.2408H69.2736L67.9712 51.2125ZM75.5347 54.729V54.3823C75.5347 54.3328 75.5848 54.2833 75.685 54.2833L76.0356 54.2337C76.4864 54.1842 76.7369 53.9861 76.7369 53.5403V48.2903C76.5365 47.9436 76.1859 47.7455 75.7351 47.696C75.6349 47.696 75.5848 47.6465 75.5848 47.5969V47.2502L75.6349 47.2007L77.8388 47.2502L81.5955 52.3021C81.846 52.5498 81.9963 52.6984 82.0464 52.6984C82.0964 52.6984 82.1465 52.5498 82.1465 52.3021V48.4389C82.1465 48.2408 82.0964 48.0922 81.9462 47.9932C81.7959 47.8446 81.6456 47.795 81.3952 47.7455L81.0446 47.696C80.9444 47.696 80.8943 47.6465 80.8943 47.5969V47.2502L80.9444 47.2007C81.9462 47.2007 82.4471 47.2502 82.4972 47.2502L83.9498 47.2007H83.9998V47.5969C83.9998 47.6465 83.9497 47.6465 83.8997 47.696L83.549 47.7455C83.0982 47.795 82.8478 48.0427 82.8478 48.4389V54.4814C82.8478 54.7786 82.7476 54.9271 82.4972 54.9271C82.2968 54.9271 82.0964 54.8281 81.846 54.5804L77.9891 49.479C77.7888 49.2314 77.6385 49.0828 77.5383 49.0828C77.4381 49.0828 77.388 49.2809 77.388 49.6771V53.5899C77.388 53.9861 77.6385 54.2337 78.1394 54.2833L78.49 54.3328C78.5401 54.3328 78.5902 54.3823 78.5902 54.4319V54.7786V54.8281C77.6886 54.8281 77.1877 54.7786 77.0875 54.7786H75.5347V54.729ZM86.1537 54.729V54.3823C86.1537 54.3328 86.2038 54.2833 86.2539 54.2833L86.6045 54.2337C86.8549 54.2337 87.0052 54.1842 87.1054 54.0356C87.2056 53.9366 87.2056 53.788 87.2556 53.5403V48.2408C87.2556 48.0427 87.2056 47.9436 87.1555 47.8446C87.1054 47.795 86.905 47.7455 86.6546 47.7455L86.3039 47.696C86.2539 47.696 86.2038 47.6465 86.2038 47.5969V47.2502V47.2007C86.4542 47.2007 86.7047 47.2007 87.0052 47.2007C87.2556 47.2007 87.5061 47.2007 87.6063 47.2007C87.7565 47.2007 87.8567 47.2007 87.9068 47.2007C88.2073 47.2007 88.558 47.2007 88.9587 47.2007C89.3594 47.2007 89.7601 47.2007 90.1107 47.2007C91.4131 47.2007 92.3648 47.5474 93.066 48.2903C93.7673 48.9837 94.0678 49.9248 94.0678 51.0639C94.0678 51.7573 93.9676 52.3517 93.7673 52.8469C93.5168 53.3422 93.2163 53.7385 92.8656 53.9861C92.515 54.2337 92.1143 54.4319 91.6635 54.5804C91.2628 54.729 90.812 54.7786 90.3111 54.7786C89.6599 54.7786 89.159 54.7786 88.8585 54.7786C88.558 54.7786 88.2574 54.7786 87.9569 54.7786H86.1537V54.729ZM88.558 53.5899C88.558 53.8375 88.6581 54.0356 88.8084 54.1347C88.9587 54.2337 89.3594 54.2833 89.9104 54.2833C90.8621 54.2833 91.6134 54.0852 92.0141 53.6394C92.4649 53.1936 92.7154 52.4507 92.7154 51.3611C92.7154 51.1134 92.7154 50.7668 92.6653 50.321C92.6152 50.0238 92.5651 49.6771 92.4148 49.3304C92.2646 48.9837 92.1143 48.7361 91.8639 48.4884C91.6635 48.2408 91.363 48.0922 90.9623 47.8941C90.5615 47.7455 90.1107 47.6465 89.6098 47.6465C88.9086 47.6465 88.558 47.795 88.558 48.1417V53.5899ZM20.0357 68.8447C20.4865 68.5475 20.8873 68.2999 21.3381 68.1017C21.7889 67.8541 22.1896 67.656 22.6404 67.4083C22.7907 67.3588 22.9409 67.2598 23.1914 67.1112C23.4418 66.9626 23.6923 66.8635 23.9427 66.7149C24.1932 66.5664 24.4436 66.4673 24.694 66.4178C24.9445 66.3682 25.1449 66.3682 25.2951 66.4178C25.4955 66.5168 25.5456 66.6654 25.5456 66.814C25.5456 66.9626 25.4955 67.1112 25.3953 67.3093C25.2951 67.5074 25.1949 67.656 25.0447 67.8046C24.8944 67.9531 24.8443 68.1017 24.7942 68.2008C24.694 68.3494 24.644 68.5475 24.5438 68.6961C24.4436 68.8942 24.3935 69.0428 24.2933 69.2409C24.7441 68.8942 25.0948 68.5475 25.4454 68.2503C25.796 67.9532 26.0465 67.755 26.347 67.5074C26.5974 67.3093 26.8479 67.1112 27.0983 66.9626C27.3488 66.814 27.5992 66.6654 27.8497 66.5664C28.1502 66.4178 28.4007 66.4178 28.7012 66.5168C29.0017 66.6159 29.1019 66.8635 29.0518 67.2598C29.0017 67.5074 28.9516 67.8046 28.9016 68.0522C28.8014 68.2999 28.7012 68.5475 28.601 68.7951C29.0017 68.5475 29.4525 68.2503 29.8533 67.9531C30.254 67.656 30.7048 67.4083 31.1055 67.1112C31.4561 66.8635 31.8568 66.6159 32.2575 66.3187C32.6583 66.0711 33.1091 65.873 33.5098 65.7739C33.8103 65.7244 34.0107 65.7244 34.211 65.8234C34.4114 65.9225 34.5116 66.0711 34.5616 66.2197C34.6117 66.4178 34.6618 66.6159 34.6117 66.814C34.5616 67.0616 34.5116 67.2598 34.4114 67.4579C34.1609 67.8541 33.9606 68.2503 33.7101 68.6466C33.4597 68.9933 33.2593 69.3895 33.059 69.7857C33.3595 69.8352 33.7602 69.7857 34.1609 69.6371C34.5616 69.4885 34.9123 69.34 35.1627 69.1914C35.4132 69.0923 35.6636 68.9437 35.9141 68.8447C36.1645 68.7456 36.3649 68.597 36.6153 68.498C36.7155 68.4484 36.7656 68.3989 36.8658 68.2999C36.9659 68.2008 37.0661 68.1513 37.2164 68.0522C37.3166 68.0027 37.4668 67.9036 37.567 67.9036C37.6672 67.8541 37.7674 67.8541 37.8675 67.9036C38.0679 68.0027 38.118 68.1017 38.0178 68.2503C37.9176 68.3989 37.7674 68.5475 37.567 68.6466C37.3667 68.7951 37.1663 68.8942 36.9659 68.9933C36.7656 69.0923 36.6153 69.1914 36.5151 69.2409C36.2647 69.3895 35.9642 69.5381 35.7137 69.6866C35.4633 69.8352 35.1627 69.9343 34.9123 70.0829C34.5616 70.2315 34.1609 70.4296 33.7101 70.6277C33.2593 70.8258 32.8586 70.8258 32.4579 70.6772C32.2575 70.5782 32.1073 70.4791 32.0071 70.3305C31.957 70.1819 31.9069 70.0333 31.957 69.8352C31.957 69.6867 32.0572 69.4885 32.1574 69.34C32.2575 69.1418 32.3577 68.9933 32.4579 68.8942C32.5581 68.7456 32.7083 68.597 32.8586 68.4484C33.0089 68.2999 33.1591 68.1017 33.3094 67.9531C33.4597 67.755 33.5599 67.6065 33.61 67.4083C33.7101 67.2102 33.7101 67.0121 33.66 66.814C33.4597 66.7149 33.2092 66.7645 32.9588 66.8635C32.6583 67.0121 32.4579 67.1112 32.3076 67.2102C31.7566 67.4579 31.2057 67.755 30.6547 68.1513C30.1037 68.5475 29.6028 68.8942 29.152 69.2904C29.1019 69.34 28.9516 69.4885 28.7513 69.6371C28.5509 69.8352 28.3506 69.9838 28.1502 70.1324C27.9499 70.281 27.7495 70.3801 27.5491 70.4296C27.3488 70.4791 27.1985 70.3801 27.0983 70.1819C27.0482 70.0829 27.0482 69.9838 27.0983 69.8352C27.1484 69.6867 27.1985 69.5381 27.2987 69.3895C27.3989 69.2409 27.4991 69.0923 27.5491 68.9437C27.6493 68.7951 27.6994 68.6961 27.7495 68.597C27.7996 68.498 27.8497 68.3494 27.8998 68.2008C27.9499 68.0027 27.9999 67.8541 28.05 67.656C27.5992 67.8046 27.1985 68.0027 26.7978 68.2503C26.3971 68.498 26.0465 68.7456 25.6958 69.0428C25.3452 69.34 24.9946 69.6371 24.694 69.9343C24.3434 70.2315 23.9928 70.5286 23.6422 70.8258C23.542 70.9249 23.4418 71.0239 23.2915 71.0734C23.1413 71.123 23.0411 71.123 22.8908 71.0734C22.6905 71.0239 22.5903 70.9249 22.5903 70.8258C22.5903 70.7268 22.5903 70.6277 22.6404 70.5286C22.6905 70.4296 22.7907 70.3305 22.8407 70.2315C22.9409 70.1324 22.991 70.0333 23.0411 69.9838C23.542 69.2409 23.9427 68.4484 24.2432 67.6065C23.8425 67.7055 23.3917 67.8541 23.0411 68.0522C22.6404 68.2503 22.2898 68.3989 21.889 68.597C21.6386 68.7456 21.3381 68.8942 21.0876 69.0428C20.8372 69.1914 20.5366 69.34 20.2862 69.5381C20.186 69.5876 20.0858 69.6371 19.9857 69.5876C19.8855 69.5876 19.8354 69.5381 19.7853 69.439C19.7352 69.3895 19.7352 69.2904 19.7352 69.1914C19.8855 68.9932 19.9356 68.8942 20.0357 68.8447ZM37.4668 67.9531C37.7173 67.8046 37.9677 67.656 38.3184 67.4579C38.669 67.2598 39.0697 67.0616 39.4203 66.8635C39.821 66.6654 40.2217 66.4673 40.5724 66.3187C40.923 66.1701 41.2736 66.0215 41.5241 65.873C41.6743 65.8234 41.8747 65.7244 42.2253 65.5758C42.5759 65.4272 42.9266 65.3281 43.3273 65.1796C43.728 65.0805 44.0786 64.9814 44.4292 64.9319C44.7799 64.8824 45.0303 64.8824 45.1806 64.9814C45.431 65.1796 45.4811 65.3777 45.3309 65.5758C45.1806 65.7739 45.0303 65.873 44.83 65.9225L43.5276 66.1206C43.2772 66.2197 43.0267 66.3187 42.8765 66.4178C42.6761 66.5168 42.4758 66.6654 42.2754 66.8635C42.1752 66.9626 42.025 67.1112 41.7745 67.3588C41.5241 67.6065 41.3237 67.9036 41.1234 68.1513C40.923 68.4484 40.7226 68.7456 40.6225 68.9933C40.5223 69.2409 40.5223 69.439 40.6726 69.5381C40.7727 69.6371 40.9731 69.6371 41.2235 69.5876C41.474 69.5381 41.7244 69.439 42.025 69.2904C42.2754 69.1418 42.5259 69.0428 42.7763 68.8942C43.0267 68.7456 43.177 68.6466 43.2271 68.597C43.7781 68.2008 44.2289 67.8541 44.5294 67.4083C44.6797 67.2102 44.8801 67.1607 45.0804 67.3093C45.2808 67.4579 45.381 67.656 45.2808 67.9036C45.2307 68.0522 45.1806 68.1513 45.0804 68.2503C44.9802 68.3494 44.8801 68.4484 44.83 68.5475C44.7298 68.6465 44.6797 68.7456 44.6296 68.9437C44.5795 69.0923 44.5294 69.1914 44.5795 69.2409C44.6296 69.2904 44.6797 69.34 44.7799 69.34C45.0303 69.3895 45.381 69.34 45.7817 69.2409C46.1824 69.1418 46.5831 68.9932 47.0339 68.8447C47.4847 68.6961 47.8854 68.498 48.2861 68.2999C48.6868 68.1017 49.0876 67.9036 49.3881 67.755C49.4883 67.755 49.5885 67.656 49.6886 67.5569C49.8389 67.4579 49.9391 67.4083 50.0893 67.3093C50.2396 67.2598 50.3899 67.2102 50.4901 67.2102C50.6403 67.2102 50.7405 67.2598 50.7906 67.3588C50.8908 67.4579 50.8908 67.5569 50.7906 67.656C50.6904 67.755 50.5902 67.8541 50.44 67.9036C50.2897 68.0027 50.1394 68.0522 49.9892 68.1017C49.8389 68.1513 49.7387 68.2008 49.6385 68.2503C49.338 68.3989 48.9874 68.597 48.6868 68.7456C48.3863 68.8942 48.0357 69.0923 47.6851 69.2409C47.4346 69.34 47.1842 69.4885 46.9337 69.6371C46.6833 69.7857 46.3827 69.9343 46.0822 70.0333C45.7817 70.1324 45.4811 70.2315 45.1806 70.281C44.8801 70.3305 44.5795 70.3305 44.3291 70.2315C43.9784 70.1324 43.7781 69.9343 43.728 69.6866C43.6779 69.439 43.6779 69.1914 43.728 68.9437L42.9767 69.439C42.6761 69.6371 42.3255 69.8848 41.9749 70.0829C41.6242 70.281 41.2736 70.4296 40.8729 70.4791C40.5223 70.5286 40.2217 70.4791 39.9212 70.281C39.6207 70.1324 39.4704 69.8352 39.4203 69.4885C39.4203 69.2904 39.4704 69.0428 39.6207 68.7456C39.7709 68.4484 39.9212 68.1017 40.1717 67.8046C40.4221 67.4579 40.6726 67.1607 40.923 66.8635C41.2235 66.5664 41.474 66.3682 41.7244 66.2197C41.5742 66.2692 41.3738 66.3682 41.0733 66.5168C40.7727 66.6654 40.4221 66.8635 40.0715 67.0616C39.7209 67.2598 39.3201 67.5074 38.9194 67.7055C38.5187 67.9531 38.118 68.1513 37.8175 68.3494C37.7173 68.3989 37.6171 68.4484 37.5169 68.3989C37.4167 68.3989 37.3667 68.3494 37.2665 68.2503C37.2164 68.2008 37.1663 68.1017 37.2164 68.0027C37.3166 68.1017 37.3667 68.0027 37.4668 67.9531ZM50.3899 67.2598C50.8908 67.0616 51.3917 66.8635 51.8425 66.6159C52.2933 66.3682 52.7441 66.1206 53.245 65.9225C53.5455 65.7739 53.8961 65.6253 54.1967 65.5263C54.5473 65.4272 54.8478 65.3281 55.1985 65.2291C55.5992 65.0805 55.9999 65.031 56.4507 65.031C56.6511 65.031 56.7512 65.0805 56.9015 65.2786C57.0017 65.4272 57.0518 65.5758 56.9516 65.7739C56.9015 65.873 56.8013 65.972 56.7011 66.0215C56.601 66.0711 56.4507 66.1206 56.3004 66.1206C56.1502 66.1206 55.9999 66.1206 55.8496 66.1206C55.6994 66.1206 55.5491 66.1206 55.4489 66.1206C55.1985 66.1206 54.8979 66.2197 54.5974 66.3682C54.2969 66.5168 54.0464 66.7149 53.796 66.9131C53.4453 67.1607 53.1448 67.4579 52.8943 67.8541C52.8943 67.9036 52.8443 67.9531 52.7441 68.1017C52.694 68.2503 52.5938 68.3494 52.5437 68.498C52.4936 68.6466 52.4435 68.7456 52.3935 68.8942C52.3434 68.9933 52.3935 69.0923 52.4435 69.1418C52.4936 69.1914 52.5938 69.1914 52.7441 69.1914C52.8944 69.1418 52.9945 69.0923 53.1448 69.0428C53.2951 68.9932 53.3952 68.8942 53.4954 68.8447C53.5956 68.7951 53.6958 68.7456 53.6958 68.6961C54.0464 68.498 54.3469 68.2999 54.6475 68.0522C54.948 67.8541 55.2486 67.6065 55.5491 67.4083L56.9015 66.1701C57.202 65.4767 57.5527 64.8329 57.9033 64.1395C58.2539 63.4461 58.6546 62.8022 59.0053 62.1583C59.2557 61.7126 59.5562 61.2668 59.8067 60.821C60.0571 60.3753 60.3577 59.9295 60.6582 59.4838C60.9587 59.0875 61.2593 58.6418 61.6099 58.196C61.9605 57.7503 62.3612 57.4036 62.812 57.1559C62.9623 57.1064 63.0625 57.0569 63.2128 57.0569C63.363 57.0073 63.4632 57.0073 63.6135 57.0569C63.8138 57.1064 63.9641 57.1559 64.0643 57.3045C64.1645 57.4036 64.2145 57.5522 64.2145 57.7007C64.2145 57.8493 64.2145 58.0474 64.1645 58.2456C64.1144 58.4437 64.0643 58.5923 63.9641 58.7408C63.6636 59.2857 63.2628 59.8305 62.8621 60.3258C62.4614 60.821 62.0106 61.3163 61.6099 61.8611C60.9587 62.6536 60.3076 63.4461 59.6564 64.189C59.0052 64.9319 58.304 65.6748 57.5527 66.3682C57.4525 66.6159 57.3523 66.9131 57.3022 67.1607C57.202 67.4083 57.1519 67.656 57.0518 67.9531C57.0017 68.0522 56.9516 68.1513 56.9015 68.2999C56.8514 68.4484 56.8013 68.597 56.7512 68.7456C56.7011 68.8942 56.6511 69.0428 56.6511 69.1914C56.601 69.34 56.601 69.4885 56.6511 69.5876C57.0017 69.5876 57.3523 69.4885 57.7029 69.34C58.0536 69.1914 58.4042 69.0428 58.7047 68.9437C59.2557 68.7456 59.8067 68.4484 60.3577 68.1513C60.9086 67.8541 61.4596 67.5569 61.9605 67.2598C62.0106 67.2102 62.1108 67.2102 62.211 67.1607C62.3111 67.1607 62.4113 67.1607 62.5115 67.1607C62.6117 67.1607 62.6618 67.2102 62.6618 67.3093C62.6618 67.4083 62.6618 67.5074 62.5616 67.6065C62.4614 67.755 62.3111 67.8541 62.1108 67.9531C61.9104 68.0027 61.7602 68.1017 61.6099 68.1513C61.0589 68.4484 60.5079 68.6961 60.007 68.9933C59.4561 69.2904 58.9552 69.5876 58.4042 69.8848C58.2539 69.9838 58.0536 70.0829 57.9033 70.1819C57.7029 70.281 57.5026 70.3801 57.3022 70.4791C57.1019 70.5782 56.9015 70.5782 56.6511 70.6277C56.4507 70.6277 56.2503 70.5782 56.1001 70.4791C55.8997 70.3305 55.7995 70.1819 55.7494 69.9838C55.6994 69.7857 55.6994 69.5876 55.6994 69.34C55.7494 69.1418 55.7494 68.8942 55.8496 68.6961C55.8997 68.498 55.9999 68.2999 56.05 68.1513C56.05 68.0522 56.1001 68.0027 56.1001 67.9531C56.1001 67.9036 56.1502 67.8046 56.2002 67.7055L54.7477 68.9933C54.5974 69.1418 54.397 69.2904 54.2468 69.4885C54.0464 69.6371 53.846 69.7857 53.6457 69.9343C53.4453 70.0829 53.1949 70.1819 52.9444 70.2315C52.694 70.281 52.4936 70.281 52.2432 70.2315C51.8425 70.1324 51.592 69.9343 51.5419 69.6866C51.4418 69.439 51.4418 69.1418 51.5419 68.8447C51.6421 68.5475 51.7924 68.2008 52.0428 67.9036C52.2933 67.6065 52.5437 67.3093 52.7942 67.0121L52.0428 67.3093C51.8425 67.4083 51.592 67.5569 51.3416 67.7055C51.0911 67.8541 50.8407 67.9532 50.5902 68.0027C50.4901 68.0522 50.3899 68.0522 50.2897 68.0027C50.1895 67.9532 50.1394 67.9036 50.1394 67.8046C50.0893 67.7055 50.0893 67.656 50.1394 67.5569C50.2396 67.3588 50.2897 67.3093 50.3899 67.2598ZM58.6546 64.288C59.1555 63.7432 59.6564 63.1984 60.1072 62.6536C60.6081 62.1088 61.0589 61.5144 61.5097 60.9201C61.7101 60.6229 61.9104 60.3753 62.0607 60.1276C62.2611 59.88 62.4113 59.5828 62.6117 59.2857C62.6618 59.1866 62.762 58.9885 62.9623 58.7408C63.1126 58.4932 63.2128 58.2456 63.2628 58.0474C63.0124 58.1465 62.762 58.3446 62.5115 58.5923C62.2611 58.8894 62.1108 59.0875 61.9605 59.2361C61.5097 59.7314 61.109 60.2267 60.7083 60.7715C60.3076 61.3163 59.9569 61.8611 59.6063 62.406L58.4543 64.4366L58.6546 64.288ZM62.211 66.6654C62.4614 66.2197 62.812 65.8729 63.3129 65.5758C63.7637 65.2786 64.2646 65.13 64.8156 65.031C65.0661 64.9814 65.4167 64.9814 65.7673 65.031C66.1179 65.0805 66.4185 65.2291 66.6188 65.4767C66.7691 65.6253 66.7691 65.7739 66.719 65.972C66.6689 66.1701 66.5187 66.3187 66.3684 66.4673C66.2181 66.6159 66.0178 66.7645 65.8174 66.8635C65.617 67.0121 65.4668 67.0616 65.3666 67.1607C65.016 67.3588 64.6153 67.5569 64.2145 67.656C63.8138 67.755 63.363 67.8046 62.9623 67.755H62.8621C62.9623 68.2008 63.1126 68.498 63.4131 68.7456C63.6636 68.9933 64.0142 69.1418 64.3648 69.2409C64.7154 69.34 65.1161 69.3895 65.5169 69.3895C65.9176 69.3895 66.2682 69.34 66.6188 69.2904C67.0696 69.1914 67.5204 69.0923 67.9712 68.9437C68.4221 68.7951 68.8729 68.6466 69.2736 68.4484C69.4739 68.3494 69.6743 68.2503 69.8746 68.1513C70.075 68.0522 70.2754 67.9531 70.4256 67.8541C70.5759 67.8046 70.7262 67.8541 70.8263 67.9036C70.9766 68.0027 70.9766 68.1017 70.8764 68.2999C70.7762 68.4484 70.626 68.5475 70.4757 68.597C70.2754 68.6466 70.1251 68.6961 70.0249 68.7951L68.5723 69.439C67.6707 69.7857 66.7691 70.0829 65.9176 70.3305C65.5169 70.4296 65.1161 70.4296 64.7154 70.4296C64.3147 70.3801 63.9641 70.3305 63.6135 70.1819C63.2628 70.0333 62.9623 69.8352 62.7119 69.5381C62.4614 69.2904 62.2611 68.9437 62.1108 68.498C62.0607 68.3494 62.0607 68.2008 62.0106 68.0522C61.9605 67.9036 61.9605 67.755 62.0106 67.6065C62.0106 67.2102 62.1108 66.9626 62.211 66.6654ZM62.9623 66.9626C63.4131 66.9626 63.8639 66.814 64.3147 66.6159C64.7655 66.4178 65.1161 66.1206 65.4668 65.8234C65.2163 65.7244 64.9158 65.6748 64.6654 65.7244C64.4149 65.7739 64.1645 65.8234 63.914 65.972C63.7136 66.0711 63.5133 66.2197 63.3129 66.4178C63.1627 66.6159 63.0625 66.814 62.9623 66.9626ZM49.0876 37.8398C48.4364 37.3445 47.5348 37.1959 46.7334 36.8988C45.381 36.5025 44.279 35.9082 42.9767 34.9671C41.3237 33.7289 39.6207 32.7879 37.6672 32.1936C37.4167 32.045 36.6153 31.8964 36.5151 31.6487C36.2647 30.9058 37.1162 30.5096 38.2683 30.361C39.0697 30.2619 39.7709 30.6086 40.5223 30.7077C41.3237 30.9553 42.1251 31.1535 42.9266 31.4011C44.1287 31.5002 44.1788 30.5096 43.8282 29.519C43.177 27.5874 41.7745 25.4577 40.6726 23.7242C40.372 23.2784 40.0715 22.9317 39.6207 22.0897C39.3201 21.5449 38.3183 19.9105 38.1681 19.6628C37.9176 19.0685 37.6171 17.8798 38.5688 17.6817C39.0697 17.5826 39.4704 18.0779 39.821 18.3751C40.3219 18.8704 41.0232 20.2076 41.474 20.7029C42.3255 21.6935 42.7763 22.7831 43.728 23.8232C44.8801 25.2596 45.7817 24.6157 45.1305 23.5756C44.83 23.0308 44.5795 22.2878 44.279 21.6935C43.9284 20.901 43.6278 20.5543 43.2772 19.7124C43.0267 19.118 42.7763 18.2265 42.4758 17.6322C42.025 16.5921 40.923 14.4623 42.5259 14.1156C43.4275 13.9175 44.1287 15.9977 44.3792 16.5425C44.8801 17.5331 45.431 18.6723 45.6314 18.9694C46.0321 19.7124 45.9319 20.1086 46.9337 21.5944C48.0357 23.2289 48.4364 23.0308 48.2861 21.9411C48.186 20.4553 47.9355 20.4553 47.7351 19.2171C47.635 18.6227 47.3845 17.2359 47.1842 16.1463C47.084 15.651 46.6332 13.9175 47.5348 13.6699C48.4865 13.4222 48.9373 14.7595 49.1376 15.7005C49.338 16.6911 49.7387 18.0284 49.9391 18.8208C50.3398 20.4058 49.889 19.6628 50.7405 22.6841C50.991 23.4765 51.6421 23.3775 51.6421 22.7831C51.7423 21.9411 51.592 21.2973 51.5419 20.6039C51.4918 19.7124 51.5419 18.9694 51.4418 18.0779C51.3917 17.6817 51.2915 15.7005 52.1931 15.8491C52.8443 15.9482 53.0446 16.8892 53.1949 17.5331C53.4453 18.5732 53.4954 19.6133 53.6457 20.7029C53.9963 22.486 53.8961 24.4176 54.6475 26.0025C54.9981 26.7454 55.1484 27.835 55.2486 28.3799C55.499 29.7171 55.5491 30.3115 55.6493 31.6487C55.7494 32.0945 55.8496 32.5898 55.9999 33.0355C56.3004 33.5803 56.601 34.1252 56.9015 34.67C59.5061 31.9954 61.0589 28.3799 61.0589 24.368C61.0589 19.0685 58.2539 14.4128 54.0464 11.7878C51.1913 10.0048 49.3881 6.98352 49.3881 3.66511V0H42.5759V3.61558C42.5759 6.88447 40.8729 9.90571 38.0679 11.6392C33.3094 14.5614 30.3541 20.0095 31.0554 26.1015C31.8568 32.9365 37.4167 38.3846 44.279 39.1275C46.3326 39.3752 48.2861 39.1771 50.1394 38.6323C49.7387 38.3846 49.3881 38.0874 49.0876 37.8398Z" fill="url(#paint0_linear)"/>
</g>
<defs>
<linearGradient id="paint0_linear" x1="47.0339" y1="0" x2="47.0339" y2="71.1106" gradientUnits="userSpaceOnUse">
<stop stop-color="#E8AF7D"/>
<stop offset="0.614583" stop-color="#BD8A5D"/>
<stop offset="1" stop-color="#BD8A5D"/>
</linearGradient>
<clipPath id="clip0">
<rect width="94.0678" height="71.0734" fill="white"/>
</clipPath>
</defs>
</svg>
