<svg width="89" height="56" viewBox="0 0 89 56" fill="none" xmlns="http://www.w3.org/2000/svg">
<g clip-path="url(#clip0)">
<path d="M2.41982 53.2073C2.41982 53.7831 2.41982 54.2438 2.65028 54.359C2.76551 54.4741 2.99597 54.5893 3.9178 54.5893C5.18533 54.5893 5.41578 54.4741 5.8767 53.3225C5.99193 53.3225 6.22239 53.3225 6.22239 53.4376C6.10716 53.8983 5.8767 54.8196 5.76147 55.05C5.30056 55.05 4.26349 55.05 2.99597 55.05H1.84368C1.26753 55.05 0.691382 55.05 0.230465 55.05C0.115236 55.05 0.115236 54.8196 0.230465 54.7045H0.576153C1.1523 54.5893 1.26753 54.5893 1.26753 53.4376V49.1764C1.26753 48.0248 1.1523 47.9096 0.576153 47.9096H0.230465C0.115236 47.9096 0.115236 47.6793 0.230465 47.5641C0.806612 47.5641 1.38276 47.5641 1.84368 47.5641C2.30459 47.5641 2.88074 47.5641 3.34166 47.5641C3.45689 47.5641 3.45689 47.7944 3.34166 47.9096H3.1112C2.53505 48.0248 2.41982 48.0248 2.41982 49.1764V53.2073Z" fill="url(#paint0_linear)"/>
<path d="M8.87268 49.1764C8.87268 47.9096 8.75745 47.9096 8.1813 47.7944H7.95084C7.83561 47.6793 7.83561 47.5641 7.95084 47.4489C8.41176 47.4489 8.87268 47.4489 9.44882 47.4489H11.6382C12.3296 47.4489 13.0209 47.4489 13.1362 47.4489C13.1362 47.6793 13.2514 48.6006 13.3666 49.0613C13.3666 49.1764 13.1362 49.1764 13.0209 49.0613C12.7905 48.3703 12.6752 48.1399 12.3296 48.0248C12.0991 47.9096 11.7534 47.9096 11.4077 47.9096H10.7163C10.2554 47.9096 10.2554 47.9096 10.2554 48.6006V50.6736C10.2554 51.0191 10.2554 51.0191 10.4859 51.0191H11.062C12.0991 51.0191 12.2143 51.0191 12.3296 50.5585L12.4448 50.213C12.56 50.0978 12.7905 50.0978 12.7905 50.213C12.7905 50.5585 12.7905 50.904 12.7905 51.3646C12.7905 51.8253 12.7905 52.1708 12.7905 52.5163C12.7905 52.6315 12.56 52.6315 12.4448 52.5163L12.3296 52.0556C12.2143 51.595 12.0991 51.595 11.062 51.595H10.4859C10.2554 51.595 10.2554 51.595 10.2554 51.9405V53.4376C10.2554 54.0135 10.2554 54.4741 10.4859 54.5893C10.6011 54.7045 10.8316 54.8196 11.7534 54.8196C13.2514 54.8196 13.4818 54.4741 13.8275 53.5528C13.9428 53.4376 14.1732 53.5528 14.1732 53.668C14.058 54.1286 13.8275 55.05 13.7123 55.2803C13.2514 55.2803 12.2143 55.2803 10.8316 55.2803H9.56405C9.10314 55.2803 8.41176 55.2803 7.83561 55.2803C7.72038 55.2803 7.72038 55.05 7.83561 54.9348H8.29653C8.87268 54.9348 8.98791 54.8196 8.98791 53.668V49.1764H8.87268Z" fill="url(#paint1_linear)"/>
<path d="M21.087 47.5641C21.8936 47.5641 22.2393 47.5641 22.3545 47.5641C22.4697 47.5641 22.4697 47.6793 22.4697 47.7944C22.2393 48.0248 21.3174 49.2916 20.7413 50.3281L18.7824 52.977C18.5519 53.3225 17.8606 54.359 17.8606 54.4741C17.8606 54.5893 17.9758 54.5893 18.2062 54.5893C18.4367 54.5893 18.6672 54.5893 19.589 54.5893C20.6261 54.5893 21.2022 54.4741 21.5479 54.359C21.8936 54.1286 22.124 53.7831 22.3545 53.0921C22.4697 52.977 22.7002 53.0921 22.7002 53.2073C22.585 54.0135 22.3545 54.8196 22.124 55.05C21.5479 55.05 20.8565 55.05 20.0499 55.05H17.0539C16.4778 55.05 16.0169 55.05 15.9017 55.05C15.9017 55.05 15.7864 54.9348 15.7864 54.8196C16.0169 54.5893 16.593 53.7831 17.0539 53.0921L19.589 49.2916C20.0499 48.6006 20.3956 48.1399 20.3956 48.0248C20.3956 47.9096 20.1651 47.9096 20.0499 47.9096H18.6672C17.7453 47.9096 17.2844 48.0248 16.9387 48.2551C16.7083 48.4854 16.4778 48.8309 16.3626 49.1765C16.2473 49.2916 16.0169 49.1764 16.0169 49.0613C16.1321 48.3703 16.3626 47.7944 16.4778 47.1034C16.4778 47.1034 16.593 47.1034 16.7083 47.1034C16.8235 47.3338 17.0539 47.4489 17.8606 47.4489H21.087V47.5641ZM18.6672 46.4124C18.6672 46.0669 18.8976 45.7214 19.3585 45.7214C19.7042 45.7214 20.0499 46.0669 20.0499 46.2973C20.0499 46.7579 19.8194 46.9883 19.3585 46.9883C19.0128 46.9883 18.6672 46.8731 18.6672 46.4124Z" fill="url(#paint2_linear)"/>
<path d="M26.8484 52.286C26.5027 52.286 26.5027 52.286 26.5027 52.6315L26.0418 54.0135C25.8114 54.7045 25.8114 54.7045 26.2723 54.8196H26.618C26.7332 54.9348 26.7332 55.1651 26.618 55.1651C26.2723 55.1651 25.9266 55.1651 25.3505 55.1651C25.0048 55.1651 24.6591 55.1651 24.1982 55.1651C24.0829 55.1651 24.0829 54.9348 24.1982 54.8196H24.5438C24.8895 54.8196 25.0048 54.7045 25.12 54.2438C25.2352 53.8983 25.4657 53.4376 25.6961 52.8618L27.3094 48.7158C27.4246 48.3703 27.5398 48.0248 27.5398 47.9096C27.8855 47.7944 28.3464 47.3338 28.3464 47.3338C28.4616 47.3338 28.4616 47.3338 28.5769 47.4489C28.8073 48.0248 28.9226 48.4854 29.153 49.0613L30.7662 53.8983C30.9967 54.7045 31.1119 54.7045 31.6881 54.8196H31.9185C32.0338 54.9348 32.0338 55.05 31.9185 55.1651C31.4576 55.1651 30.9967 55.1651 30.4205 55.1651C29.9596 55.1651 29.3835 55.1651 29.0378 55.1651C28.9226 55.1651 28.9226 54.9348 29.0378 54.8196H29.2683C29.7292 54.8196 29.7292 54.7045 29.6139 54.2438L28.8073 52.6315C28.6921 52.286 28.6921 52.286 28.3464 52.286H26.8484ZM28.2312 51.8253C28.5769 51.8253 28.5769 51.8253 28.4616 51.4798L28.0007 50.0978C27.7703 49.522 27.7703 49.2916 27.655 49.1764C27.655 49.2916 27.5398 49.522 27.3094 50.0978L26.8484 51.4798C26.7332 51.8253 26.7332 51.8253 26.9637 51.8253H28.2312Z" fill="url(#paint3_linear)"/>
<path d="M35.7211 50.4433C35.7211 50.7888 35.7211 51.0191 35.9516 51.0191C36.182 51.0191 36.4125 50.7888 36.7582 50.3281L37.9105 49.0613C38.0257 48.9461 38.3714 48.4854 38.4866 48.3703C38.7171 48.1399 38.7171 48.0248 38.6018 48.0248L38.2561 47.9096C38.1409 47.7944 38.1409 47.6793 38.2561 47.5641C38.7171 47.5641 39.0627 47.5641 39.5237 47.5641C39.9846 47.5641 40.3303 47.5641 40.7912 47.5641C40.9064 47.5641 40.9064 47.7944 40.7912 47.9096C39.7541 48.0248 39.4084 48.3703 38.6018 49.0613C38.1409 49.5219 37.68 49.9826 37.2191 50.4433C37.1038 50.5585 37.1038 50.6736 37.2191 50.7888C38.1409 51.9405 39.178 53.3225 40.0998 54.359C40.3303 54.7045 40.5607 54.7045 40.9064 54.8196H41.1369C41.2521 54.8196 41.2521 55.1652 41.1369 55.1652C40.7912 55.1652 40.3303 55.1652 39.6389 55.1652C39.0627 55.1652 38.6018 55.1652 38.0257 55.1652C37.9105 55.1652 37.9105 54.9348 38.0257 54.8196H38.3714C38.6018 54.8196 38.6018 54.7045 38.4866 54.4741C38.0257 53.8983 36.6429 52.0556 36.182 51.595C36.0668 51.4798 35.9516 51.3646 35.9516 51.3646C35.6059 51.3646 35.7211 51.595 35.7211 51.9405V53.4376C35.7211 54.7045 35.8363 54.7045 36.4125 54.7045H36.7582C36.8734 54.7045 36.8734 55.05 36.7582 55.05C36.182 55.05 35.7211 55.05 35.1449 55.05C34.684 55.05 34.1079 55.05 33.647 55.05C33.5317 55.05 33.5317 54.8196 33.647 54.7045H33.7622C34.3383 54.5893 34.4536 54.5893 34.4536 53.3225V49.0613C34.4536 47.7944 34.3383 47.7944 33.7622 47.7944H33.5317C33.4165 47.6793 33.4165 47.5641 33.5317 47.4489C33.9927 47.4489 34.5688 47.4489 35.0297 47.4489C35.4906 47.4489 36.0668 47.4489 36.5277 47.4489C36.6429 47.4489 36.6429 47.6793 36.5277 47.7944H36.2972C35.7211 47.9096 35.6059 47.9096 35.6059 49.0613V50.4433H35.7211Z" fill="url(#paint4_linear)"/>
<path d="M50.4704 51.3646C50.4704 53.668 48.742 55.2803 46.4374 55.2803C43.7871 55.2803 42.2892 53.4376 42.2892 51.3646C42.2892 49.0613 44.0176 47.3338 46.4374 47.3338C49.0877 47.3338 50.4704 49.2916 50.4704 51.3646ZM43.9024 51.1343C43.9024 52.7466 44.5938 54.9348 46.5527 54.9348C47.8202 54.9348 48.9725 54.0135 48.9725 51.595C48.9725 49.8675 48.1659 47.7944 46.3222 47.7944C45.1699 47.7944 43.9024 48.7158 43.9024 51.1343Z" fill="url(#paint5_linear)"/>
<path d="M63.1457 47.9096C62.5695 48.0248 62.4543 48.2551 61.9934 49.1764C61.0715 51.1343 60.3802 52.7466 59.6888 54.359C59.5736 54.8196 59.4583 55.05 59.3431 55.2803C59.3431 55.2803 59.2279 55.2803 59.1126 55.2803C58.9974 55.2803 58.9974 55.2803 58.8822 55.2803C58.6517 54.5893 57.9604 53.0921 57.4994 52.0556C57.0385 53.0921 56.4624 54.1286 56.0015 55.2803C56.0015 55.2803 55.8862 55.2803 55.771 55.2803C55.6558 55.2803 55.6558 55.2803 55.5405 55.2803C55.3101 54.7045 55.0796 54.1286 54.7339 53.4376L52.5446 48.7158C52.3141 48.2551 52.1989 48.0248 51.738 47.9096L51.3923 47.7944C51.2771 47.6793 51.2771 47.5641 51.3923 47.4489C51.8532 47.4489 52.3141 47.4489 52.775 47.4489C53.236 47.4489 53.5816 47.4489 54.1578 47.4489C54.273 47.4489 54.273 47.6793 54.1578 47.7944V47.9096C54.0426 47.9096 53.9273 48.0248 53.9273 48.1399C53.9273 48.2551 54.0426 48.4854 54.1578 48.9461L55.5405 51.9405C55.8862 52.8618 56.2319 53.4376 56.3471 53.5528C56.5776 53.0921 56.8081 52.5163 57.1537 51.9405C57.269 51.7101 57.269 51.595 57.269 51.4798C57.269 51.4798 57.269 51.2495 57.1537 51.1343L56.0015 48.6006C55.771 48.1399 55.6558 48.0248 55.3101 47.9096L54.9644 47.7944C54.8492 47.6793 54.8492 47.5641 54.9644 47.4489C55.4253 47.4489 55.771 47.4489 56.2319 47.4489C56.6928 47.4489 57.1537 47.4489 57.6147 47.4489C57.7299 47.4489 57.7299 47.6793 57.6147 47.7944L57.269 47.9096C57.1538 47.9096 57.0385 48.0248 57.0385 48.0248C57.0385 48.1399 57.0385 48.2551 57.1537 48.3703C57.3842 48.9461 57.7299 49.522 57.9604 50.0978C58.1908 49.7523 58.306 49.2916 58.5365 48.8309C58.6517 48.4854 58.767 48.1399 58.767 48.0248C58.767 47.9096 58.6517 47.9096 58.5365 47.9096L58.1908 47.7944C58.0756 47.6793 58.1908 47.5641 58.1908 47.4489C58.5365 47.4489 58.767 47.4489 59.2279 47.4489C59.5736 47.4489 59.9193 47.4489 60.2649 47.4489C60.3802 47.4489 60.3802 47.6793 60.2649 47.7944L59.9193 47.9096C59.4583 48.0248 59.3431 48.1399 58.9974 48.8309C58.767 49.2916 58.4213 49.8675 58.1908 50.4433C58.1908 50.5585 58.0756 50.7888 58.0756 50.7888C58.0756 50.7888 58.0756 50.904 58.1908 51.0191L58.6517 52.0556C58.8822 52.6315 59.2279 53.3225 59.3431 53.4376C59.9193 52.0556 60.4954 50.5585 61.1868 49.0613C61.4172 48.6006 61.5325 48.1399 61.5325 48.0248C61.5325 47.9096 61.302 47.9096 61.1868 47.7944H60.9563C60.8411 47.6793 60.8411 47.5641 60.9563 47.4489C61.4172 47.4489 61.7629 47.4489 62.1086 47.4489C62.4543 47.4489 62.8 47.4489 63.2609 47.4489C63.3761 47.4489 63.3761 47.6793 63.2609 47.7944L63.1457 47.9096Z" fill="url(#paint6_linear)"/>
<path d="M65.5655 52.286C65.2198 52.286 65.2198 52.286 65.2198 52.6315L64.7589 54.0135C64.5284 54.7045 64.5284 54.7045 64.9893 54.8196H65.335C65.4502 54.9348 65.4502 55.1651 65.335 55.1651C64.9893 55.1651 64.6436 55.1651 64.0675 55.1651C63.7218 55.1651 63.3761 55.1651 62.9152 55.1651C62.8 55.1651 62.8 54.9348 62.9152 54.8196H63.2609C63.6066 54.8196 63.7218 54.7045 63.837 54.2438C63.9523 53.8983 64.1827 53.4376 64.4132 52.8618L66.0264 48.7158C66.1416 48.3703 66.2569 48.0248 66.2569 47.9096C66.6025 47.7944 67.0635 47.3338 67.0635 47.3338C67.1787 47.3338 67.1787 47.3338 67.2939 47.4489C67.5244 48.0248 67.6396 48.4854 67.8701 49.0613L69.4833 53.8983C69.7137 54.7045 69.829 54.7045 70.4051 54.8196H70.6356C70.7508 54.9348 70.7508 55.05 70.6356 55.1651C70.1746 55.1651 69.7137 55.1651 69.1376 55.1651C68.6767 55.1651 68.1005 55.1651 67.7548 55.1651C67.6396 55.1651 67.6396 54.9348 67.7548 54.8196H67.9853C68.4462 54.8196 68.4462 54.7045 68.331 54.2438L67.7548 52.6315C67.6396 52.286 67.6396 52.286 67.2939 52.286H65.5655ZM66.9482 51.8253C67.2939 51.8253 67.2939 51.8253 67.1787 51.4798L66.7178 50.0978C66.4873 49.522 66.4873 49.2916 66.3721 49.1764C66.3721 49.2916 66.2569 49.522 66.0264 50.0978L65.5655 51.4798C65.4502 51.8253 65.4502 51.8253 65.6807 51.8253H66.9482Z" fill="url(#paint7_linear)"/>
<path d="M79.393 53.2073C79.393 53.5528 79.393 54.9348 79.393 55.2803C79.2778 55.3955 79.1625 55.5107 79.0473 55.3955C78.8169 55.1652 78.5864 54.8197 77.6646 53.7831L75.0143 50.6736C74.3229 49.8675 73.862 49.4068 73.7468 49.1765C73.7468 49.1765 73.7468 49.2916 73.7468 49.8675V52.0556C73.7468 52.977 73.7468 54.0135 73.9772 54.359C74.0925 54.5893 74.3229 54.5893 74.5534 54.7045H74.7838C74.8991 54.8197 74.8991 55.05 74.7838 55.05C74.3229 55.05 73.862 55.05 73.5163 55.05C73.0554 55.05 72.7097 55.05 72.364 55.05C72.2488 55.05 72.2488 54.8197 72.364 54.7045H72.5945C72.8249 54.7045 73.0554 54.5893 73.0554 54.4741C73.1706 54.1286 73.1706 53.0921 73.1706 52.1708V49.522C73.1706 48.6006 73.1706 48.4854 72.8249 48.1399C72.7097 48.0248 72.364 47.9096 72.2488 47.9096H72.1336C72.0183 47.7944 72.0183 47.5641 72.1336 47.5641C72.5945 47.5641 73.1706 47.5641 73.5163 47.5641C73.7468 47.5641 74.0925 47.5641 74.3229 47.5641C74.5534 48.0248 75.8209 49.522 76.1666 49.9826L77.3189 51.2495C77.7798 51.8253 78.8169 52.977 78.9321 53.0921C78.9321 53.0921 78.9321 52.977 78.9321 52.8618V50.6736C78.9321 49.8675 78.9321 48.7158 78.7016 48.3703C78.5864 48.1399 78.3559 48.1399 78.1255 48.0248H77.895C77.7798 47.9096 77.7798 47.6793 77.895 47.6793C78.3559 47.6793 78.8169 47.6793 79.1625 47.6793C79.6235 47.6793 79.9691 47.6793 80.3148 47.6793C80.4301 47.6793 80.4301 47.9096 80.3148 48.0248L80.0844 48.1399C79.8539 48.1399 79.6235 48.2551 79.6235 48.3703C79.5082 48.7158 79.5082 49.7523 79.5082 50.6736V53.2073H79.393Z" fill="url(#paint8_linear)"/>
<path d="M83.4261 49.1764C83.4261 47.9096 83.3108 47.9096 82.7347 47.7944H82.5042C82.389 47.6793 82.389 47.5641 82.5042 47.4489C82.9651 47.4489 83.4261 47.4489 84.0022 47.4489H86.1916C86.8829 47.4489 87.5743 47.4489 87.6895 47.4489C87.6895 47.6793 87.8048 48.6006 87.92 49.0613C87.92 49.1764 87.6895 49.1764 87.5743 49.0613C87.3438 48.3703 87.2286 48.1399 86.8829 48.0248C86.6525 47.9096 86.3068 47.9096 85.9611 47.9096H85.2697C84.8088 47.9096 84.8088 47.9096 84.8088 48.6006V50.6736C84.8088 51.0191 84.8088 51.0191 85.0393 51.0191H85.6154C86.6525 51.0191 86.7677 51.0191 86.8829 50.5585L86.9981 50.213C87.1134 50.0978 87.3438 50.0978 87.3438 50.213C87.3438 50.5585 87.3438 50.904 87.3438 51.3646C87.3438 51.8253 87.3438 52.1708 87.3438 52.5163C87.3438 52.6315 87.1134 52.6315 86.9981 52.5163L86.8829 52.0556C86.7677 51.595 86.6525 51.595 85.6154 51.595H85.0393C84.8088 51.595 84.8088 51.595 84.8088 51.9405V53.4376C84.8088 54.0135 84.8088 54.4741 85.0393 54.5893C85.1545 54.7045 85.3849 54.8196 86.3068 54.8196C87.8048 54.8196 88.0352 54.4741 88.3809 53.5528C88.4961 53.4376 88.7266 53.5528 88.7266 53.668C88.6114 54.1286 88.3809 55.05 88.2657 55.2803C87.8048 55.2803 86.7677 55.2803 85.3849 55.2803H84.1174C83.6565 55.2803 82.9651 55.2803 82.389 55.2803C82.2738 55.2803 82.2738 55.05 82.389 54.9348H82.8499C83.4261 54.9348 83.5413 54.8196 83.5413 53.668V49.1764H83.4261Z" fill="url(#paint9_linear)"/>
<path d="M36.7581 27.8705C36.7581 21.5363 41.9435 16.3538 48.2811 16.3538C53.3512 16.3538 57.6147 19.5784 59.2279 24.07C59.1126 18.8874 56.3471 14.3959 52.3141 11.7471C49.4334 9.90439 47.7049 6.91004 47.7049 3.57019V0H40.9064V3.68535C40.9064 7.02521 39.178 10.0196 36.4125 11.7471C31.6881 14.6262 28.8073 20.1543 29.4987 26.2581C30.3053 33.1682 35.8363 38.5811 42.6348 39.3872C42.6348 39.3872 43.7871 39.5024 44.3633 39.5024C45.0547 39.5024 45.746 39.3872 46.4374 39.3872C40.9064 38.3507 36.7581 33.6289 36.7581 27.8705Z" fill="url(#paint10_linear)"/>
<path d="M44.9394 31.7862C44.8242 31.7862 44.5937 31.7862 44.4785 31.671C44.248 31.4407 44.248 31.0952 44.4785 30.8648L47.5897 27.7553V19.8088C47.5897 19.4633 47.8202 19.2329 48.1658 19.2329C48.5115 19.2329 48.742 19.4633 48.742 19.8088V28.216L45.2851 31.671C45.2851 31.671 45.0547 31.7862 44.9394 31.7862Z" fill="url(#paint11_linear)"/>
</g>
<defs>
<linearGradient id="paint0_linear" x1="3.18322" y1="47.5641" x2="3.18322" y2="55.05" gradientUnits="userSpaceOnUse">
<stop stop-color="#E8AF7D"/>
<stop offset="0.614583" stop-color="#BD8A5D"/>
<stop offset="1" stop-color="#BD8A5D"/>
</linearGradient>
<linearGradient id="paint1_linear" x1="10.9612" y1="47.4489" x2="10.9612" y2="55.2803" gradientUnits="userSpaceOnUse">
<stop stop-color="#E8AF7D"/>
<stop offset="0.614583" stop-color="#BD8A5D"/>
<stop offset="1" stop-color="#BD8A5D"/>
</linearGradient>
<linearGradient id="paint2_linear" x1="19.2433" y1="45.7214" x2="19.2433" y2="55.05" gradientUnits="userSpaceOnUse">
<stop stop-color="#E8AF7D"/>
<stop offset="0.614583" stop-color="#BD8A5D"/>
<stop offset="1" stop-color="#BD8A5D"/>
</linearGradient>
<linearGradient id="paint3_linear" x1="28.0583" y1="47.3338" x2="28.0583" y2="55.1651" gradientUnits="userSpaceOnUse">
<stop stop-color="#E8AF7D"/>
<stop offset="0.614583" stop-color="#BD8A5D"/>
<stop offset="1" stop-color="#BD8A5D"/>
</linearGradient>
<linearGradient id="paint4_linear" x1="37.3343" y1="47.4489" x2="37.3343" y2="55.1651" gradientUnits="userSpaceOnUse">
<stop stop-color="#E8AF7D"/>
<stop offset="0.614583" stop-color="#BD8A5D"/>
<stop offset="1" stop-color="#BD8A5D"/>
</linearGradient>
<linearGradient id="paint5_linear" x1="46.3798" y1="47.3338" x2="46.3798" y2="55.2803" gradientUnits="userSpaceOnUse">
<stop stop-color="#E8AF7D"/>
<stop offset="0.614583" stop-color="#BD8A5D"/>
<stop offset="1" stop-color="#BD8A5D"/>
</linearGradient>
<linearGradient id="paint6_linear" x1="57.3266" y1="47.4489" x2="57.3266" y2="55.2803" gradientUnits="userSpaceOnUse">
<stop stop-color="#E8AF7D"/>
<stop offset="0.614583" stop-color="#BD8A5D"/>
<stop offset="1" stop-color="#BD8A5D"/>
</linearGradient>
<linearGradient id="paint7_linear" x1="66.7754" y1="47.3338" x2="66.7754" y2="55.1651" gradientUnits="userSpaceOnUse">
<stop stop-color="#E8AF7D"/>
<stop offset="0.614583" stop-color="#BD8A5D"/>
<stop offset="1" stop-color="#BD8A5D"/>
</linearGradient>
<linearGradient id="paint8_linear" x1="76.2242" y1="47.5641" x2="76.2242" y2="55.4432" gradientUnits="userSpaceOnUse">
<stop stop-color="#E8AF7D"/>
<stop offset="0.614583" stop-color="#BD8A5D"/>
<stop offset="1" stop-color="#BD8A5D"/>
</linearGradient>
<linearGradient id="paint9_linear" x1="85.5146" y1="47.4489" x2="85.5146" y2="55.2803" gradientUnits="userSpaceOnUse">
<stop stop-color="#E8AF7D"/>
<stop offset="0.614583" stop-color="#BD8A5D"/>
<stop offset="1" stop-color="#BD8A5D"/>
</linearGradient>
<linearGradient id="paint10_linear" x1="44.3123" y1="0" x2="44.3123" y2="39.5024" gradientUnits="userSpaceOnUse">
<stop stop-color="#E8AF7D"/>
<stop offset="0.614583" stop-color="#BD8A5D"/>
<stop offset="1" stop-color="#BD8A5D"/>
</linearGradient>
<linearGradient id="paint11_linear" x1="46.5238" y1="19.2329" x2="46.5238" y2="31.7862" gradientUnits="userSpaceOnUse">
<stop stop-color="#E8AF7D"/>
<stop offset="0.614583" stop-color="#BD8A5D"/>
<stop offset="1" stop-color="#BD8A5D"/>
</linearGradient>
<clipPath id="clip0">
<rect width="88.8418" height="55.3955" fill="white"/>
</clipPath>
</defs>
</svg>
