<svg width="79" height="56" viewBox="0 0 79 56" fill="none" xmlns="http://www.w3.org/2000/svg">
<g clip-path="url(#clip0)">
<path d="M0.922236 49.3943C0.922236 48.2402 0.922236 48.1248 0.345841 48.1248H3.08454e-06C-0.115276 48.0094 -0.115276 47.894 3.08454e-06 47.7786C0.46112 47.7786 1.38335 47.6632 2.65142 47.6632C3.57366 47.6632 4.38061 47.7786 4.95701 48.0094C5.5334 48.3556 5.76396 48.8173 5.76396 49.5097C5.76396 50.2022 5.30285 50.6638 4.49589 51.01C4.49589 51.01 4.38061 51.01 4.38061 51.1254C4.38061 51.1254 4.38061 51.1254 4.49589 51.2408C5.41812 51.3562 6.34036 51.9333 6.34036 53.2027C6.34036 53.7798 6.22508 54.3568 5.64868 54.703C5.07229 55.1647 4.38061 55.3955 2.99726 55.3955C2.53614 55.3955 1.95975 55.3955 1.61391 55.3955C1.15279 55.3955 0.576399 55.3955 0.115282 55.3955C3.07709e-06 55.3955 3.07709e-06 55.1647 0.115282 55.0493H0.345841C0.922236 54.9339 1.03752 54.9339 1.03752 53.7798V49.3943H0.922236ZM2.30559 50.6638C2.30559 51.01 2.30559 51.01 2.7667 51.01C3.80422 51.01 4.38061 50.5484 4.38061 49.5097C4.38061 48.471 3.68894 48.1248 2.88198 48.1248C2.30559 48.1248 2.30559 48.1248 2.30559 48.5864V50.6638ZM2.30559 53.3182C2.30559 54.3568 2.42087 54.8184 3.45838 54.8184C4.26533 54.8184 4.95701 54.3568 4.95701 53.3182C4.95701 52.1641 4.15005 51.4716 2.88198 51.4716C2.30559 51.3562 2.30559 51.4716 2.30559 51.7024V53.3182Z" fill="url(#paint0_linear)"/>
<path d="M9.56817 49.2789C9.56817 48.0094 9.45289 48.0094 8.8765 47.894H8.64594C8.53066 47.7786 8.53066 47.6632 8.64594 47.5478C9.10705 47.5478 9.56817 47.5478 10.1446 47.5478H12.3349C13.0265 47.5478 13.7182 47.5478 13.8335 47.5478C13.8335 47.7786 13.9488 48.7019 14.0641 49.1635C14.0641 49.2789 13.8335 49.2789 13.7182 49.1635C13.4877 48.471 13.3724 48.2402 13.0265 48.1248C12.796 48.0094 12.4501 48.0094 12.1043 48.0094H11.4126C10.9515 48.0094 10.9515 48.0094 10.9515 48.7019V50.7792C10.9515 51.1254 10.9515 51.1254 11.1821 51.1254H11.7585C12.796 51.1254 12.9113 51.1254 13.0265 50.6638L13.1418 50.3176C13.2571 50.2022 13.4877 50.2022 13.4877 50.3176C13.4877 50.6638 13.4877 51.01 13.4877 51.4716C13.4877 51.9333 13.4877 52.2795 13.4877 52.6257C13.4877 52.7411 13.2571 52.7411 13.1418 52.6257L13.0265 52.1641C12.9113 51.7024 12.796 51.7024 11.7585 51.7024H11.1821C10.9515 51.7024 10.9515 51.7024 10.9515 52.0487V53.549C10.9515 54.126 10.9515 54.5876 11.1821 54.703C11.2974 54.8184 11.5279 54.9338 12.4501 54.9338C13.9488 54.9338 14.1793 54.5876 14.5252 53.6644C14.6405 53.549 14.871 53.6644 14.871 53.7798C14.7557 54.2414 14.5252 55.1647 14.4099 55.3955C13.9488 55.3955 12.9113 55.3955 11.5279 55.3955H10.2598C9.79873 55.3955 9.10705 55.3955 8.53066 55.3955C8.41538 55.3955 8.41538 55.1647 8.53066 55.0493H8.99177C9.56817 55.0493 9.68345 54.9338 9.68345 53.7798V49.2789H9.56817Z" fill="url(#paint1_linear)"/>
<path d="M21.7878 47.6632C22.5947 47.6632 22.9406 47.6632 23.0558 47.6632C23.1711 47.6632 23.1711 47.7786 23.1711 47.894C22.9406 48.1248 22.0183 49.3943 21.4419 50.433L19.4822 53.0873C19.2516 53.4336 18.5599 54.4722 18.5599 54.5876C18.5599 54.703 18.6752 54.703 18.9058 54.703C19.1363 54.703 19.3669 54.703 20.2891 54.703C21.3266 54.703 21.903 54.5876 22.2489 54.4722C22.5947 54.2414 22.8253 53.8952 23.0558 53.2027C23.1711 53.0873 23.4017 53.2027 23.4017 53.3182C23.2864 54.126 23.0558 54.9339 22.8253 55.1647C22.2489 55.1647 21.5572 55.1647 20.7503 55.1647H17.753C17.1766 55.1647 16.7155 55.1647 16.6002 55.1647C16.6002 55.1647 16.4849 55.0493 16.4849 54.9338C16.7155 54.703 17.2919 53.8952 17.753 53.2027L20.2891 49.3943C20.7503 48.7019 21.0961 48.2402 21.0961 48.1248C21.0961 48.0094 20.8655 48.0094 20.7503 48.0094H19.3669C18.4447 48.0094 17.9836 48.1248 17.6377 48.3556C17.4072 48.5865 17.1766 48.9327 17.0613 49.2789C16.946 49.3943 16.7155 49.2789 16.7155 49.1635C16.8308 48.471 17.0613 47.894 17.1766 47.2016C17.1766 47.2016 17.2919 47.2016 17.4072 47.2016C17.5224 47.4324 17.753 47.5478 18.5599 47.5478H21.7878V47.6632Z" fill="url(#paint2_linear)"/>
<path d="M36.774 49.6251C36.6588 49.7405 36.4282 49.7405 36.4282 49.6251C36.1977 48.9327 35.7365 47.894 34.2379 47.894C32.7393 47.894 31.3559 48.9327 31.3559 51.2408C31.3559 53.6644 32.8546 54.9338 34.3532 54.9338C35.8518 54.9338 36.4282 54.0106 36.774 53.2027C36.8893 53.0873 37.0046 53.2027 37.1199 53.2027C37.0046 54.0106 36.774 54.703 36.5435 54.9338C36.4282 54.9338 36.3129 55.0493 36.1976 55.0493C35.7365 55.2801 34.9296 55.3955 34.2379 55.3955C33.0851 55.3955 32.1629 55.1647 31.2406 54.5876C30.3184 54.0106 29.6267 52.9719 29.6267 51.4716C29.6267 50.0867 30.2031 49.0481 31.1254 48.471C31.9323 47.7786 33.0851 47.5478 34.3532 47.5478C35.0449 47.5478 35.8518 47.6632 36.3129 47.7786C36.4282 47.7786 36.5435 47.7786 36.6588 47.894C36.6588 48.0094 36.6588 48.7019 36.774 49.6251Z" fill="url(#paint3_linear)"/>
<path d="M41.8463 51.587C41.2699 51.587 41.2699 51.587 41.2699 51.9333V53.6644C41.2699 54.9339 41.3852 54.9338 41.9616 54.9338H42.3074C42.4227 55.0493 42.4227 55.2801 42.3074 55.2801C41.7311 55.2801 41.1547 55.2801 40.6935 55.2801C40.2324 55.2801 39.656 55.2801 39.1949 55.2801C39.0796 55.2801 39.0796 55.0493 39.1949 54.9338H39.3102C39.8866 54.8184 40.0019 54.8184 40.0019 53.549V49.2789C40.0019 48.0094 39.8866 48.0094 39.3102 48.0094H39.0796C38.9644 48.0094 38.9644 47.7786 39.0796 47.6632C39.5407 47.6632 40.1171 47.6632 40.5783 47.6632C41.0394 47.6632 41.6158 47.6632 42.0769 47.6632C42.1922 47.6632 42.1922 47.894 42.0769 48.0094H41.8463C41.2699 48.1248 41.1547 48.1248 41.1547 49.2789V50.6638C41.1547 51.01 41.1547 51.01 41.7311 51.01H44.3825C44.9589 51.01 44.9589 51.01 44.9589 50.6638V49.2789C44.9589 48.0094 44.8436 48.0094 44.2672 48.0094H44.0366C43.9214 48.0094 43.9214 47.7786 44.0366 47.6632C44.613 47.6632 45.0742 47.6632 45.5353 47.6632C45.9964 47.6632 46.5728 47.6632 47.0339 47.6632C47.1492 47.6632 47.1492 47.894 47.0339 48.0094H46.8033C46.2269 48.1248 46.1117 48.1248 46.1117 49.2789V53.549C46.1117 54.8184 46.2269 54.8184 46.8033 54.8184H47.0339C47.1492 54.9339 47.1492 55.1647 47.0339 55.1647C46.5728 55.1647 45.9964 55.1647 45.5353 55.1647C44.9589 55.1647 44.4978 55.1647 44.0366 55.1647C43.9214 55.1647 43.9214 54.9339 44.0366 54.8184H44.2672C44.8436 54.703 44.9589 54.703 44.9589 53.549V51.9333C44.9589 51.587 44.9589 51.587 44.3825 51.587H41.8463Z" fill="url(#paint4_linear)"/>
<path d="M50.6076 49.2789C50.6076 48.0094 50.4923 48.0094 49.9159 47.894H49.6853C49.57 47.7786 49.57 47.6632 49.6853 47.5478C50.1464 47.5478 50.6076 47.5478 51.1839 47.5478H53.3742C54.0659 47.5478 54.7576 47.5478 54.8729 47.5478C54.8729 47.7786 54.9882 48.7019 55.1034 49.1635C55.1034 49.2789 54.8729 49.2789 54.7576 49.1635C54.527 48.471 54.4118 48.2402 54.0659 48.1248C53.8354 48.0094 53.4895 48.0094 53.1437 48.0094H52.3367C51.8756 48.0094 51.8756 48.0094 51.8756 48.7019V50.7792C51.8756 51.1254 51.8756 51.1254 52.1062 51.1254H52.6826C53.7201 51.1254 53.8354 51.1254 53.9506 50.6638L54.0659 50.3176C54.1812 50.2022 54.4118 50.2022 54.4118 50.3176C54.4118 50.6638 54.4118 51.01 54.4118 51.4716C54.4118 51.9333 54.4118 52.2795 54.4118 52.6257C54.4118 52.7411 54.1812 52.7411 54.0659 52.6257L53.9506 52.1641C53.8354 51.7024 53.7201 51.7024 52.6826 51.7024H52.1062C51.8756 51.7024 51.8756 51.7024 51.8756 52.0487V53.549C51.8756 54.126 51.8756 54.5876 52.1062 54.703C52.2215 54.8184 52.452 54.9338 53.3742 54.9338C54.8729 54.9338 55.1034 54.5876 55.4493 53.6644C55.5646 53.549 55.7951 53.6644 55.7951 53.7798C55.6798 54.2414 55.4493 55.1647 55.334 55.3955C54.8729 55.3955 53.8354 55.3955 52.452 55.3955H51.1839C50.7228 55.3955 50.0312 55.3955 49.4548 55.3955C49.3395 55.3955 49.3395 55.1647 49.4548 55.0493H49.9159C50.4923 55.0493 50.6076 54.9338 50.6076 53.7798V49.2789Z" fill="url(#paint5_linear)"/>
<path d="M67.4383 54.9339C67.5536 54.9339 67.5536 55.2801 67.4383 55.2801C66.9772 55.2801 66.5161 55.2801 66.055 55.2801C65.4786 55.2801 65.0174 55.2801 64.5563 55.2801C64.4411 55.2801 64.4411 55.0493 64.5563 54.9339H64.9022C65.3633 54.8184 65.3633 54.8184 65.3633 54.0106V49.2789C65.0174 49.8559 64.9022 50.2022 64.6716 50.6638L63.6341 52.7411C63.2883 53.549 62.7119 54.8184 62.4813 55.3955C62.4813 55.3955 62.2508 55.3955 62.1355 55.3955C61.9049 54.8184 61.4438 53.6644 61.2132 53.0873L60.0604 50.7792C59.8299 50.3176 59.4841 49.6251 59.3688 49.2789C59.3688 49.8559 59.3688 50.7792 59.2535 51.2408C59.2535 51.9333 59.2535 52.9719 59.2535 53.8952C59.2535 54.703 59.2535 54.8184 59.7146 54.9339L60.0604 55.0493C60.1757 55.1647 60.1757 55.3955 60.0604 55.3955C59.5993 55.3955 59.2535 55.3955 58.9077 55.3955C58.5618 55.3955 58.1007 55.3955 57.6396 55.3955C57.5243 55.3955 57.5243 55.1647 57.6396 55.0493H57.8701C58.4465 54.9339 58.4465 54.8184 58.5618 54.126C58.6771 53.4336 58.6771 52.6257 58.6771 51.4716C58.6771 50.6638 58.7924 49.7405 58.7924 49.0481C58.7924 48.471 58.6771 48.2402 58.216 48.2402L57.8701 48.1248C57.7549 48.0094 57.8701 47.7786 57.8701 47.7786C58.216 47.7786 58.5618 47.7786 58.9077 47.7786C59.2535 47.7786 59.7146 47.7786 60.1757 47.7786C60.1757 48.471 60.5216 49.0481 60.7521 49.7405L62.0202 52.3949C62.1355 52.6257 62.366 53.2027 62.5966 53.4336C62.8271 53.0873 62.9424 52.7411 63.173 52.2795L64.2105 50.0868C64.5563 49.2789 64.9022 48.7019 65.1327 47.894C65.4786 47.894 65.8244 47.894 66.055 47.894C66.5161 47.894 66.9772 47.894 67.2077 47.894C67.323 47.894 67.323 48.1248 67.2077 48.2402L66.8619 48.3556C66.4008 48.471 66.2855 48.5865 66.2855 49.2789C66.2855 51.01 66.2855 52.7411 66.4008 54.3568C66.4008 55.1647 66.5161 55.1647 66.9772 55.2801L67.4383 54.9339Z" fill="url(#paint6_linear)"/>
<path d="M72.0495 53.549C72.0495 54.8184 72.1648 54.8184 72.7411 54.8184H72.9717C73.087 54.9339 73.087 55.1647 72.9717 55.1647C72.5106 55.1647 71.9342 55.1647 71.4731 55.1647C71.012 55.1647 70.4356 55.1647 69.9745 55.1647C69.8592 55.1647 69.8592 54.9339 69.9745 54.8184H70.205C70.7814 54.703 70.8967 54.703 70.8967 53.549V49.2789C70.8967 48.0094 70.7814 48.0094 70.205 48.0094H69.9745C69.8592 47.894 69.8592 47.7786 69.9745 47.6632C70.4356 47.6632 71.012 47.6632 71.4731 47.6632C71.9342 47.6632 72.5106 47.6632 72.9717 47.6632C73.087 47.6632 73.087 47.894 72.9717 48.0094H72.7411C72.1648 48.1248 72.0495 48.1248 72.0495 49.2789V53.549Z" fill="url(#paint7_linear)"/>
<path d="M77.4676 53.549C77.4676 54.8184 77.5829 54.8184 78.1593 54.8184H78.3898C78.5051 54.9339 78.5051 55.1647 78.3898 55.1647C77.9287 55.1647 77.3523 55.1647 76.8912 55.1647C76.4301 55.1647 75.8537 55.1647 75.3926 55.1647C75.2773 55.1647 75.2773 54.9339 75.3926 54.8184H75.6231C76.1995 54.703 76.3148 54.703 76.3148 53.549V49.2789C76.3148 48.0094 76.1995 48.0094 75.6231 48.0094H75.3926C75.2773 47.894 75.2773 47.7786 75.3926 47.6632C75.8537 47.6632 76.4301 47.6632 76.8912 47.6632C77.3523 47.6632 77.9287 47.6632 78.3898 47.6632C78.5051 47.6632 78.5051 47.894 78.3898 48.0094H78.1593C77.5829 48.1248 77.4676 48.1248 77.4676 49.2789V53.549Z" fill="url(#paint8_linear)"/>
<path d="M44.7283 26.5437V22.0428H45.7658V20.7733H40.8088V22.0428H41.8463V26.5437L38.5032 32.314C38.0421 33.1219 38.6185 34.0451 39.5408 34.0451H47.1492C48.0714 34.0451 48.6478 33.0065 48.1867 32.314L44.7283 26.5437Z" fill="url(#paint9_linear)"/>
<path d="M53.9506 22.389C53.259 18.0035 50.7228 14.1951 47.1492 11.8869C44.2672 10.0404 42.538 7.03984 42.538 3.69303V0H35.7365V3.69303C35.7365 7.03984 34.0074 10.0404 31.2407 11.7715C26.5142 14.6567 23.6322 20.1963 24.3239 26.3128C25.1309 33.2373 30.6643 38.6614 37.4657 39.4693C37.4657 39.4693 38.6185 39.5847 39.1949 39.5847C39.3102 39.5847 39.4255 39.5847 39.5408 39.5847C40.6935 39.9309 41.9616 40.1617 43.2297 40.1617C49.9159 40.0463 55.334 34.6222 55.334 27.9286C55.334 25.9666 54.8729 24.0047 53.9506 22.389ZM43.2297 38.8922C40.463 38.8922 37.8116 37.8536 35.9671 36.1225L37.6963 34.3914C37.581 34.276 37.4657 34.1605 37.4657 34.0451C37.3504 33.8143 37.2352 33.4681 37.2352 33.2373L35.1601 35.3146C33.431 33.3527 32.3934 30.8137 32.3934 28.044C32.3934 22.0428 37.3504 17.0803 43.345 17.0803C46.1117 17.0803 48.7631 18.1189 50.6076 19.85L45.8811 24.5817V26.1974L51.4145 20.6579C53.1437 22.6198 54.1812 25.1588 54.1812 27.9286C54.1812 34.0451 49.2242 38.8922 43.2297 38.8922Z" fill="url(#paint10_linear)"/>
</g>
<defs>
<linearGradient id="paint0_linear" x1="3.12695" y1="47.6632" x2="3.12695" y2="55.3955" gradientUnits="userSpaceOnUse">
<stop stop-color="#E8AF7D"/>
<stop offset="0.614583" stop-color="#BD8A5D"/>
<stop offset="1" stop-color="#BD8A5D"/>
</linearGradient>
<linearGradient id="paint1_linear" x1="11.6576" y1="47.5478" x2="11.6576" y2="55.3955" gradientUnits="userSpaceOnUse">
<stop stop-color="#E8AF7D"/>
<stop offset="0.614583" stop-color="#BD8A5D"/>
<stop offset="1" stop-color="#BD8A5D"/>
</linearGradient>
<linearGradient id="paint2_linear" x1="19.9433" y1="47.2016" x2="19.9433" y2="55.1647" gradientUnits="userSpaceOnUse">
<stop stop-color="#E8AF7D"/>
<stop offset="0.614583" stop-color="#BD8A5D"/>
<stop offset="1" stop-color="#BD8A5D"/>
</linearGradient>
<linearGradient id="paint3_linear" x1="33.3733" y1="47.5478" x2="33.3733" y2="55.3955" gradientUnits="userSpaceOnUse">
<stop stop-color="#E8AF7D"/>
<stop offset="0.614583" stop-color="#BD8A5D"/>
<stop offset="1" stop-color="#BD8A5D"/>
</linearGradient>
<linearGradient id="paint4_linear" x1="43.0568" y1="47.6632" x2="43.0568" y2="55.2801" gradientUnits="userSpaceOnUse">
<stop stop-color="#E8AF7D"/>
<stop offset="0.614583" stop-color="#BD8A5D"/>
<stop offset="1" stop-color="#BD8A5D"/>
</linearGradient>
<linearGradient id="paint5_linear" x1="52.5817" y1="47.5478" x2="52.5817" y2="55.3955" gradientUnits="userSpaceOnUse">
<stop stop-color="#E8AF7D"/>
<stop offset="0.614583" stop-color="#BD8A5D"/>
<stop offset="1" stop-color="#BD8A5D"/>
</linearGradient>
<linearGradient id="paint6_linear" x1="62.5389" y1="47.7786" x2="62.5389" y2="55.3955" gradientUnits="userSpaceOnUse">
<stop stop-color="#E8AF7D"/>
<stop offset="0.614583" stop-color="#BD8A5D"/>
<stop offset="1" stop-color="#BD8A5D"/>
</linearGradient>
<linearGradient id="paint7_linear" x1="71.4731" y1="47.6632" x2="71.4731" y2="55.1647" gradientUnits="userSpaceOnUse">
<stop stop-color="#E8AF7D"/>
<stop offset="0.614583" stop-color="#BD8A5D"/>
<stop offset="1" stop-color="#BD8A5D"/>
</linearGradient>
<linearGradient id="paint8_linear" x1="76.8912" y1="47.6632" x2="76.8912" y2="55.1647" gradientUnits="userSpaceOnUse">
<stop stop-color="#E8AF7D"/>
<stop offset="0.614583" stop-color="#BD8A5D"/>
<stop offset="1" stop-color="#BD8A5D"/>
</linearGradient>
<linearGradient id="paint9_linear" x1="43.345" y1="20.7733" x2="43.345" y2="34.0451" gradientUnits="userSpaceOnUse">
<stop stop-color="#E8AF7D"/>
<stop offset="0.614583" stop-color="#BD8A5D"/>
<stop offset="1" stop-color="#BD8A5D"/>
</linearGradient>
<linearGradient id="paint10_linear" x1="39.7779" y1="0" x2="39.7779" y2="40.1617" gradientUnits="userSpaceOnUse">
<stop stop-color="#E8AF7D"/>
<stop offset="0.614583" stop-color="#BD8A5D"/>
<stop offset="1" stop-color="#BD8A5D"/>
</linearGradient>
<clipPath id="clip0">
<rect width="78.3898" height="55.3955" fill="white"/>
</clipPath>
</defs>
</svg>
